<svg id="Layer_1" data-name="Layer 1" xmlns="http://www.w3.org/2000/svg" viewBox="0 0 526.55 474.73"><path d="M251.08,241l22.93-.46c8.81,1.26,17.83-1.23,26.55,1.5l3.3,1.71c5.61,1.48,7.83,6,9.77,10.82,1.57,6.91-.85,12.55-5.68,17.33-7.72,7.63-16.25,13.65-27.8,13.32-2.35-.06-4.76-.05-6.66-1.82a125.38,125.38,0,0,1-1.25-24.49c.07-1.17.32-2.33.4-3.51.69-10.84-.11-11.47-11-11.22-4.49.1-9.24,3-13.54-.76Z" transform="translate(-12.84 -17.14)" style="fill:#fcb580"/><path d="M274,283.34l-7,.21c-.18.15-.35.4-.55.44-15.21,2.66-33.86-17.1-29.94-31.84.7-2.63,1.4-5-.56-7.29,3.85-2.19,8.1-1.07,12.17-1.46,7.49.06,14.84-2,22.4-1.34,2.89.24,3.7.59,3.71,3.92C274.26,258.44,274.78,270.89,274,283.34Z" transform="translate(-12.84 -17.14)" style="fill:#fdbe8b"/><path d="M340.48,242c16.76,4.43,16.41,15,8.25,32.14-6,12.66-16.14,23.13-22.46,35.81-5.43,10.89-8.82,22.46-11.29,34.42-3.77,18.22-5,36.65-6.32,55.12-1.13,15.34-.35,30.66-.6,46s-.06,30.72-.06,46.07h-3c-3.57-5.73-1.21-12.06-1.88-18.09-.11-4.8-.1-9.61,0-14.41-.24-10,.22-20,.08-30.06a42.42,42.42,0,0,1-.14-5c-1.66-7.32-.88-14.64,0-21.95.09-5.42-.1-10.83.11-16.25-.51-5.86.77-11.57,1.4-17.33-.45-6.62.71-13.09,1.58-19.6a109.09,109.09,0,0,0,1.65-14.2c1.2-5.68,2.36-11.37,3.12-17.13,2-6.58,1.91-13.55,3.71-20.17,2.23-12.47,5.48-24.73,7.62-37.22.88-5.13-.1-9.33-5-12-4.31-2.51-9.18-2.41-13.91-3a4.6,4.6,0,0,1-3.5-3c1.15-6.28,2.66-7,10.84-4.83C320.91,237.15,330.57,240.36,340.48,242Z" transform="translate(-12.84 -17.14)" style="fill:#f36f45"/><path d="M241.41,491.53c0-24.3.07-48.6-.09-72.89-.18-28.22-2-56.36-8.86-83.78-4.88-19.58-14.87-37-27.29-53a41.22,41.22,0,0,1-9.24-24.63c-.25-8.8,1.95-11.38,10.49-14.11,2.64-.84,5.82.29,8-2.21,7.4-1.73,14.81-3.46,22.49-3.33,5.24-1.58,10.37-2.5,14.41,2.61.87,2.7-1.24,3.42-2.94,4.42-4,1.55-8.36,0-12.27,1.86-9.48,3.84-10.58,6.16-8.64,15.94,2.32,11.68,5.17,23.25,7.28,35,.19,5.63,2.64,10.86,2.94,16.47.7,4,1.61,8,2.42,12,.37,2.26.31,4.54.5,6.8.86,5.29,2.56,10.44,2.69,15.85.11,3.84-.38,7.73.92,11.48a56.07,56.07,0,0,1,.8,8.38c1.43,5.73,1.38,11.56,1.24,17.4.21,6.45.19,12.9,0,19.36.2,5.22.14,10.45-.05,15.67-.06,6.12,0,12.24,0,18.36.19,5.69.29,11.38.06,17.07.18,6.58.2,13.16,0,19.74-.31,5.22,1.42,10.69-2,15.52Z" transform="translate(-12.84 -17.14)" style="fill:#f36f45"/><path d="M340.48,242c21.83-15.69,57.56-3.12,65.26,23a80,80,0,0,1,3.05,18c1.79,29.4,3.9,58.78,5.9,88.16,1.23,4.28,2.91,1.8,4.52.31a1.21,1.21,0,0,1,.85.18c4.7,15.5,11.13,30.4,15.9,45.88a2.09,2.09,0,0,1-.58,1.92c-10.32,2.29-19.94,6.63-29.8,10.24-17.19,6.31-30.44-.85-34-18.76a14.88,14.88,0,0,1-2.95-9.64c.71,6.07-.61,13.33-.48,20.65-4.23,3.83-9.41,1.57-14.14,2.16-1.39.17-2.83-.1-4.22.06-2.62.3-6.54-1.06-7.12,2.6-.63,3.94,2.42,6.45,6.13,7.43,6.63,1.77,13.42,1.18,20.17,1,.1,16.92,0,33.83.43,50.74.11,4.63-1,6-5.7,5.94-18.56-.33-37.14-.27-55.71-.36-2.24-2.29-1.87-5.23-1.87-8-.08-24.3-.74-48.63.09-72.89,1-29.16,2.55-58.36,12-86.47,5.12-15.23,13.66-28.43,22.81-41.33,4.7-6.63,8.74-13.41,10-21.61,1.05-6.89.19-12.75-7.21-15.77A5.23,5.23,0,0,1,340.48,242Z" transform="translate(-12.84 -17.14)" style="fill:#2cae5c"/><path d="M241.41,491.53c-19,.08-38.07.08-57.1.3-4.08.05-5.06-1.21-4.85-5.31.86-16.64,1.6-33.3.81-50,3.1-3,7-1.81,10.67-2.05,3.48-.23,7.06.3,10.32-1.37,2.43-1.24,4.38-3.16,4.05-6-.39-3.26-3.4-2.56-5.58-2.8-6-.64-12.17,1.17-18-1.48-3.41-5.62-.84-11.35-.59-17.76-1.41,7.59.49,16-7.92,20-9.12,8.07-19.08,8.33-30,4-9.12-3.59-18.11-7.74-27.9-9.4a2.59,2.59,0,0,1-.44-2.61c5.09-15.24,11.13-30.16,15.76-45.56a8.94,8.94,0,0,1,1.4,1.5c.73,1.25-.44,3.78,2.2,3.68s1.86-2.35,2-3.8c1-13.41,1.95-26.83,2.79-40.25,1.16-18.38,2-36.78,3.36-55.13,2.47-32.54,35.79-51.71,65.18-37.61,2.35,1.13,4.58.71,6.87,1-1,3.89-4.74,3.26-7.39,4.25-7.21,2.68-9.34,5.65-8.85,13.27.55,8.52,4,15.9,9,22.67,9.86,13.33,18.15,27.46,24,43.11,5.49,14.77,7.43,30.14,9.28,45.59,4.57,38.27,2.4,76.72,2.84,115.09C243.28,487.27,243.26,489.67,241.41,491.53Z" transform="translate(-12.84 -17.14)" style="fill:#2cae5c"/><path d="M442.48,375.73c9.56-1.34,18.93-3.24,27.76-7.39,5.6-2.63,11.63-1.9,17.36-.72,9.39,1.94,18.71,4.3,27.94,6.9,3.69,1,8.12,2.32,6.73,8-4.73,2.42-9.47,1.63-14.22.08-4.8,1.83-3,4.14-.48,6.49l23.28,21.79a29.45,29.45,0,0,1,4.75,4.17c1.91,2.17,3.91,4.4,1.32,7.31s-5.39,2.63-8.2.65a111.43,111.43,0,0,1-12.17-10.61c-2.49-2.37-4.86-4.91-7.32-6.32,6.52,7.37,16.06,12.6,21.54,21.89.74,7.18-4.15,5.73-8.31,5.42-8.78-5.78-15.52-14-22.9-19.43,5.22,4.73,11.61,10.08,17.48,16,1.77,1.79,4.17,3.37,2.48,6.49l-.14,2.67c-4.88,2.7-8.75,1.5-12.47-2.54-5.08-5.53-11.73-9.37-15-13.38,3.18,2.94,8,7.62,12.92,12.17,1.77,1.64,4.05,3.63,1.67,6.55-2.33,3.76-5.69,4.64-8.7,1.56-12.31-12.53-27.71-21.84-38-36.44-2-2.79-3.75-2.09-5.77-.3-.24,0-.62.05-.68-.07C447.67,397.09,442.9,387.17,442.48,375.73Z" transform="translate(-12.84 -17.14)" style="fill:#fdca98"/><path d="M96.36,405.59c-2.5-.72-4.09-.07-5.94,2.13-11,13-24,24.06-37.07,34.92-2.32,1.92-4.72,2.94-7.72,2.27-3.22-3.85-2.26-6.6,1.15-10.26C51,430.13,56.43,427.2,61,422.29c-8.18,4.95-13.28,12.69-21.15,17-5.56,2.18-9.26,1.59-8.47-5.69,4.91-7.9,13.18-12.51,18.24-18.24-6.49,5.3-13.58,12.06-21.3,18.11-4,.07-9.13,1.81-8.26-5.47,4.54-8.23,12.55-13,19.12-19.19,1.63-1.65,4-2.48,5.38-4.72-2.38,1.44-4,3.43-6,5-5,3.49-9.16,8-13.71,12-3.85,3.39-7.58,4.35-11.86,1.06-1.12-7.14,4.89-9.86,8.93-13.28,7.36-6.24,14.68-12.5,21.46-19.36,1.36-1.38,4.1-2.59,2.64-5.11s-4.08-1.67-6.39-1c-1.82.49-3.67.85-5.47,1.41-2.3.71-4.45.62-5.27-1.91s-.7-4.81,2.16-6.66c4.2-2.71,9.14-1.9,13.56-3.66a127,127,0,0,1,14.78-4.38C72,364.86,83,368.71,94,373.9c-5.37,2.39-5.37,2.39-16.19-2.37,2.89,1.31,16.56,12.36,18.27,14.66,1.32,1.77,2.53,3.82,2,5.87C96.93,396.53,97.37,401.14,96.36,405.59Z" transform="translate(-12.84 -17.14)" style="fill:#feca98"/><path d="M211.44,75.32c1.1-9.48,6.11-16.71,13.68-22,15.3-10.76,32.37-12.76,50.38-9.27,2,2.79.94,5.86.81,8.84-.39,8.88.15,17.77-.27,26.63-.29,6.13,1.3,10,8.16,10.1a4.25,4.25,0,0,1,2.46,1.26c-2.3,6.5-7.81,2.73-11.84,3.71-12,.22-23.94-1.36-35.79-3.18-13.53-2.08-16.33-.62-22,11.54-1.2,2.55-1.39,6.14-5.24,6.73C210.07,98.23,210.69,86.78,211.44,75.32Z" transform="translate(-12.84 -17.14)" style="fill:#723f1f"/><path d="M310.72,242.29c-3.3,1.77-9.23-2.13-10.17,4.73-9.12,1.34-18.23,2.32-27.14-1.24-3.1-9.18-1.66-18.58-1.09-27.88.27-4.49,4.07-5.23,7.83-5.29,3-.33,5.94,1,9.56.79-5.07-4.3-12.12-2.2-16.63-6.46-1.23-3.26-.85-6.17,1.83-8.59,8.93-4.29,18.26-3.65,27.69-2.37,19,2.56,29.54-6.48,30.49-25.75.38-7.51,1.65-15,1.54-22.53a9.17,9.17,0,0,1,2.28-6.53,1.63,1.63,0,0,1,2.13-.32l.42-.18a10.41,10.41,0,0,1,2,6.62c.09,9.85.2,19.69-.07,29.54a24.23,24.23,0,0,1-3.17,10.68c-5,19.66-13.61,37.38-27.69,52.18C309.18,241.06,309.87,241.5,310.72,242.29Z" transform="translate(-12.84 -17.14)" style="fill:#643613"/><path d="M282.69,214.42c-6.93-1-9.53,1.6-8.86,8.81.69,7.37.17,14.86.18,22.29-7.58,3.72-15.24,3-22.93.46-4.31-2.94-9.19-3.45-14.22-3.38,4-1.38,1.73-2.43.14-4.37-12.27-14.87-21.66-31.26-25.57-50.4-3.44-6.32-.6-13.52-2.79-20-.56-4.69-1.39-9.39.79-13.92a2.86,2.86,0,0,1,3.34-.84c2.81,2.62,2,6.11,2.11,9.32.1,5.2.15,10.33,1.82,15.38,4.82,14.6,14.6,21,29.79,18.47,9.25-1.51,18.28-1.82,27.23,1.38a3.77,3.77,0,0,1,1.7,1.58c-1.84,2.43-1.42,5.26-1.41,8-3.72,3.68-9.49,2.1-14.2,5.82,6.09-1,11.36-2.34,16.73-1.68C278.88,211.63,281.94,210.82,282.69,214.42Z" transform="translate(-12.84 -17.14)" style="fill:#723f1f"/><path d="M339,140.85c-.35,0-.69,0-1-.06-2.52-2.15-2.16-5.14-2.08-7.89.23-8.06-1.62-15.94-1.8-24-.09-4-1.63-7.85-3.46-11.44-3.81-7.47-8.6-9.83-16.78-8.09-5.55,1.18-11.07,2.42-16.69,3.18-3.45.47-7.05,1.32-10.15-1.28-13.05-.57-13.21-.57-13-13.76.18-11.17-1.19-22.43,1.47-33.51,17.82,2,33.4,9.47,47.89,19.56,2.88,2,5.35,4.43,9,5.35,2.86.72,4.6,3.31,5.26,6.21a42.68,42.68,0,0,1,1.45,9C339.19,103.08,339.08,122,339,140.85Z" transform="translate(-12.84 -17.14)" style="fill:#643613"/><path d="M130.61,371.55c1.39,8.18-3,14.89-5.61,22.06-3.15,8.73-5.52,17.76-9.71,26.11-1.44,3.15-3.9,2.87-6.51,1.88-1.53-.58-3-1.35-4.53-1.9-9.9-3.52-9.91-3.5-7.49-12.9,2.09-11,5.06-21.7,11.4-31.16,5.43-11,5.44-11,17.51-6.52A52.54,52.54,0,0,1,130.61,371.55Z" transform="translate(-12.84 -17.14)" style="fill:#f36f45"/><path d="M442.48,375.73q5.77,15.51,11.53,31c-.25,3.47,5.15,8.24-.73,10.15-5.6,1.83-11,9-17.9,2.57-5.29-15.88-14.05-30.64-15.32-47.81,4-3,9-3.6,13.46-5.66,2.83-1.33,5-.14,6.18,2.69C440.67,371,441.56,373.39,442.48,375.73Z" transform="translate(-12.84 -17.14)" style="fill:#f36f45"/><path d="M244.29,491.54l.33-15.56c2.56-2.2,5.67-1.81,8.69-1.84,17.21.37,34.42-.55,51.64-.12l0,17.5Z" transform="translate(-12.84 -17.14)" style="fill:#2cae5c"/><path d="M369,435.19c-8,4.75-24,2.24-27.61-4.32-3.47-6.39-2.33-8.48,4.84-8.58s14.08,0,21.12-.05c1.06-.05,1.16.95,1.67,1.51C370.23,427.57,370.68,431.38,369,435.19Z" transform="translate(-12.84 -17.14)" style="fill:#f36f45"/><path d="M181.68,422.21c6.36,0,12.73,0,19.09.1,2.68.06,6.41-1.06,7.33,2.47s-.74,6.89-3.66,9.33c-2.71,2.25-5.95,2.54-9.33,2.48-4.94-.1-9.89,0-14.84,0-.86-1.05-1.73-2.1-2.6-3.14C177,428.94,174,423.68,181.68,422.21Z" transform="translate(-12.84 -17.14)" style="fill:#f36f45"/><path d="M108.16,375.64a276.47,276.47,0,0,1-11.4,31.16,1.84,1.84,0,0,1-.4-1.21c-2-3.76-2.91-7.15-.09-11.36,1.64-2.45.3-6.05-2.52-8.12-6.17-4.53-11-10.86-19.53-14.18,7.48-2.4,13.33,4.26,19.8,2Z" transform="translate(-12.84 -17.14)" style="fill:#fcbd8a"/><path d="M210.37,153.62q0,7.06,0,14.12c.66,6.1.94,12.2-.2,18.29-7.38-3.23-5.15-10.9-7.31-16.46-2.72-7-3.44-14.48-1-21.89,1.28-3.88,2.69-7.69,8-7C213.3,144.87,212.6,149.22,210.37,153.62Z" transform="translate(-12.84 -17.14)" style="fill:#fabf8e"/><path d="M338.18,187.51c2.12-15.56.15-31.24,1.28-46.84,3.14,0,5.84,1.17,6.49,4.27C349.11,160.14,347.05,174.47,338.18,187.51Z" transform="translate(-12.84 -17.14)" style="fill:#f7b787"/><path d="M530.77,428c-9.07-8.32-18.79-16-26.52-25.8,4.7.29,7.47,3.69,10.6,6.34,4.82,4.1,9.5,8.36,14.12,12.68,2.33,2.18,4.67,3.59,7.18.64,2.36-2.78-.21-4.67-1.74-6.63-1.14-1.47-2.37-2.88-3.56-4.32,3.26.13,4.87,2.7,6.68,4.74,3.42,3.86,1.8,7-2.12,9.1C533.7,425.67,531,425,530.77,428Z" transform="translate(-12.84 -17.14)" style="fill:#fdedd6"/><path d="M210.37,153.62l-.51-12.93c.09-18.58.14-37.16.29-55.74,0-3.24-.61-6.62,1.29-9.63,0,9.16,0,18.32.13,27.48,0,2.27-.73,4.74,1.15,6.72,3.6,3.7,2.68,8.4,2.16,12.63a78.8,78.8,0,0,0,0,22.33c.51,3.14.75,6.6-2.13,9.13Z" transform="translate(-12.84 -17.14)" style="fill:#8d5c39"/><path d="M506.47,441.94c-3.48-8.7-11.82-12.95-17.8-19.36-.91-1-2.6-1.23-2.67-3.54,2.76-1,4.71.7,6.29,2.41,5.27,5.71,12.35,9.42,17.21,15.57,2.68,3.38,6.42,2.17,9.88,2.12C515.85,443.66,510.94,441.78,506.47,441.94Z" transform="translate(-12.84 -17.14)" style="fill:#fcedd9"/><path d="M519.52,436.47c-5.47-9.22-14.52-14.91-21.93-22.22-1.19-1.17-4.33-1.66-2.57-3.92,1.55-2,3.42.1,4.64,1.42,7.12,7.74,16.68,12.89,22.8,21.67Z" transform="translate(-12.84 -17.14)" style="fill:#fdedd5"/><path d="M28.34,433.5C35,423.33,45.86,418,54.76,410.4A120.38,120.38,0,0,1,31.4,433.63Z" transform="translate(-12.84 -17.14)" style="fill:#fbeddf"/><path d="M39.87,439.32c7.27-7.71,14.35-15.64,24.21-20.19-2.69,8.25-11.16,10.6-16.2,16.53-2.73,3.2-3.64,5.63-2.25,9.25C42.23,444.57,43.66,439.25,39.87,439.32Z" transform="translate(-12.84 -17.14)" style="fill:#fbeed6"/><path d="M39.87,409.54,20.08,428c-.25-4.51-6.6-1.67-7.1-5.88,4.4,1.73,7.75.22,11.32-2.68,4.69-3.8,8-9.26,14-11.5C39.73,407.55,40.16,408.18,39.87,409.54Z" transform="translate(-12.84 -17.14)" style="fill:#fbebd4"/><path d="M181.68,422.21c-5.42,2.27-3,7.34-4,11.2-3.69-1.59.89-7.59-4.44-8.3,5.16-6.09,5.44-14,8.45-21.11Z" transform="translate(-12.84 -17.14)" style="fill:#faeae2"/><path d="M369,423.75l-1.67-1.51V397.76a28.81,28.81,0,0,1,4.26,13.2c-1.63-.65-2.59-.48-2.55,1.65C369.11,416.32,369,420,369,423.75Z" transform="translate(-12.84 -17.14)" style="fill:#fcdace"/><path d="M508.05,382.62l14.22-.08C517.56,387.85,512.81,385.79,508.05,382.62Z" transform="translate(-12.84 -17.14)" style="fill:#f5dcbf"/><path d="M210.16,186q.1-9.15.2-18.29c2.33,6.59.79,13.39,1.07,20.09Z" transform="translate(-12.84 -17.14)" style="fill:#8d5c39"/><path d="M419.21,371.5c-.94,1.87.84,5.75-2.69,5.48-3.32-.27-1.72-3.64-1.83-5.79C416.12,372.45,417.69,371.59,419.21,371.5Z" transform="translate(-12.84 -17.14)" style="fill:#fddcd3"/><path d="M226.6,408c3.2,0,4.83,1.9,4.74,4.84s-2,5-4.92,4.91c-3.19-.06-5.21-1.83-5-5.39C221.63,409,223.61,407.91,226.6,408Z" transform="translate(-12.84 -17.14)" style="fill:#f9eae1"/><path d="M227.36,453.53c-3.73,0-5.61-1.36-5.89-4.48-.32-3.53,1.69-5.41,4.9-5.46a4.6,4.6,0,0,1,4.95,4.85C231.32,451.27,229.72,453.21,227.36,453.53Z" transform="translate(-12.84 -17.14)" style="fill:#fae9de"/><path d="M226.55,489.09c-3.28-.39-5.31-1.59-5.13-4.87.16-3,1.8-5,4.75-5,3.26,0,5.19,2.12,5.17,5.36S229,488.82,226.55,489.09Z" transform="translate(-12.84 -17.14)" style="fill:#f6e9df"/><path d="M39.87,409.54,38.27,408c2.29-2.87,4.36-6,8.81-7.22C46.81,405.94,43.9,408.19,39.87,409.54Z" transform="translate(-12.84 -17.14)" style="fill:#fbe8d1"/><path d="M287,91.3c8.8.32,17.27-1.76,25.74-3.66,10.44-2.35,16.84,1,20.78,11.31,4.49,11.72,3.58,24,4.13,36.21.08,1.88.2,3.75.31,5.63-2.2,10.17-2.13,20.56-2.76,30.85-1.11,18.4-12.51,29.14-30.57,26.65-9.94-1.38-19.56-1.39-29.25.9l-1.45-.5c-2.59-2.69-2.2-6.12-2.2-9.37q-.11-42.48,0-84.95c0-4-.13-8.07,2.24-11.64C278.31,91.87,282.86,93.3,287,91.3Z" transform="translate(-12.84 -17.14)" style="fill:#fdbf8d"/><path d="M274,92.73l0,106c-10.69-1.79-21.35-.57-32.08-.37-20.47.4-26.33-10.31-28.82-28.46-.73-5.33-.26-10.83-.34-16.25-1.17-14.69-.24-29.39,0-44.09.84-5.18,3.26-9.86,5.65-14.35,3.43-6.44,9.9-7.86,16.47-6.61A269.85,269.85,0,0,0,274,92.73Z" transform="translate(-12.84 -17.14)" style="fill:#fdca98"/><path d="M236.06,314.63c-.41-5.78-3.34-11.1-3.13-17,2.19-2.21,5-2.38,7.87-2.38,11,0,22.1-.28,33.15.12,11.3-.36,22.6-.16,33.9-.14,3,0,6.19-.06,8.53,2.49q-1.77,9.67-3.56,19.34c-13-.78-26.08-.16-39.13-.51-9.88.36-19.76.14-29.64.12C241.24,316.68,238.34,316.77,236.06,314.63Z" transform="translate(-12.84 -17.14)" style="fill:#2cae5c"/><path d="M316.38,297.73,274,297.47c-1.6-4.89-1.7-10.57-7.24-13.38-.38-.19.22-1.23.83-1.65a5.47,5.47,0,0,1,6.38.9c12.21,1.51,22.07-3.12,31-11.14,5.76-5.18,8.31-11.12,7.31-18.69-1-2.24-3.19-4.78-1.32-6.91,1.66-1.9,4.62-1.16,7-.2,6,2.1,7.38,6.79,6.33,12.31C321.82,271.75,319,284.73,316.38,297.73Z" transform="translate(-12.84 -17.14)" style="fill:#eeedee"/><path d="M244.63,405l-.33-19.64c2.26-2.17,5.15-2.21,8-2.23q22.32-.15,44.65,0c2.81,0,5.74-.09,8,2.17l-.06,17.59c-.66,3.09-3,4.21-5.72,4.28-16.73.44-33.46.53-50.18,0A5.68,5.68,0,0,1,244.63,405Z" transform="translate(-12.84 -17.14)" style="fill:#f3f2f1"/><path d="M304.91,385.34l-60.61.06q-.62-8.37-1.24-16.73c10.78-3.05,21.84-2.06,32.82-2.28,7.5-.15,15-.17,22.5,0,2.82.07,5.62.43,8,2.17Q305.65,377,304.91,385.34Z" transform="translate(-12.84 -17.14)" style="fill:#2cae5c"/><path d="M241.65,348.94l-2.86-15.78c1.74-1,3.65-.82,5.52-.81,18.34.19,36.68-.39,55-.22,3.46,0,7.14-.58,10.07,2.13.23,4.93.34,9.86-1.72,14.53-2.09,1.91-4.72,1.91-7.29,1.95-17.58.26-35.16-.39-52.74-.26C245.53,350.49,243.4,350.41,241.65,348.94Z" transform="translate(-12.84 -17.14)" style="fill:#2cae5c"/><path d="M244.62,456.41l-.21-16.81c12.16-2,24.43-.25,36.62-1a78.27,78.27,0,0,1,9.19,0c6.3.33,12.06.14,12.3-8.41a1.78,1.78,0,0,1,2.45-1.71l0,30c-10,.26-20-.21-30.06-.09-7.46.34-14.92.15-22.38.1C249.74,458.46,246.85,458.62,244.62,456.41Z" transform="translate(-12.84 -17.14)" style="fill:#2cae5c"/><path d="M244.63,405l53.3.06c2.55,0,5.17.32,6.92-2.18-.44,6.73-1.49,13.45.12,20.15q-27.54-.06-55.08-.43a9.27,9.27,0,0,1-5.28-1.82Q244.61,412.93,244.63,405Z" transform="translate(-12.84 -17.14)" style="fill:#2cae5c"/><path d="M309.4,334.26l-63-.17c-2.57,0-5.2.32-7.63-.94l-.27-7.29c.39-.3,1-.72,1.22-.54,8.22,6.62,17.92,3.44,27,4.11,4.83.35,6.93-1.88,6.42-6.77-.28-2.72-1.32-5.62.82-8.13,11.42-.12,22.84-.21,34.26-.39,2.3,0,4.23.1,4.56,2.93C311.72,322.81,311.76,328.77,309.4,334.26Z" transform="translate(-12.84 -17.14)" style="fill:#ededea"/><path d="M241.65,348.94l66-.15q-.63,9.88-1.28,19.79l-31,0c-2.62-3.17-2.39-7.08-2.51-10.78s-1.89-5.16-5.3-4.89a58.25,58.25,0,0,1-15.49-.54c-6-1.13-7.21,3.91-9.44,7.57C240.89,356.4,241.5,352.65,241.65,348.94Z" transform="translate(-12.84 -17.14)" style="fill:#eeeded"/><path d="M244.61,420.82c18.58-.09,37.16-.12,55.74-.31,2.26,0,3.42,1.12,4.62,2.57v5.4c-1.83,12-1.83,12-15.06,12-12.43,0-24.85.12-37.27.08-2.76,0-5.66.64-8.23-1Q244.52,430.22,244.61,420.82Z" transform="translate(-12.84 -17.14)" style="fill:#efebe4"/><path d="M275.39,456.53c8.31-.09,16.63-.09,24.94-.33a5,5,0,0,1,4.61,2.27q0,7.75,0,15.54c-1.16,1.72-2.76,2.19-4.81,2.17-15.8-.13-31.6-.17-47.39-.24.76-3.6,3.83-2.71,6.14-3,2.77-.32,5.59,0,8.38-.18,4.76-.23,7.34-2.24,6.9-7.46C273.92,462.38,273.47,459.24,275.39,456.53Z" transform="translate(-12.84 -17.14)" style="fill:#eeebe8"/><path d="M318,246.4c-6.32-1.17-7,2.18-5.7,7.11-3.23-2.9-4.69-7.32-8.42-9.78C308.77,243.56,313.6,243.8,318,246.4Z" transform="translate(-12.84 -17.14)" style="fill:#f9d4bb"/><path d="M235.92,244.86c2.1.88,6.82-1.14,3.36,4.86-4.88,8.44-2.47,16.29,5.77,23.14,6.38,5.3,13.33,9.75,21.92,10.69,7.52,2.76,8.83,5.34,7,13.92l-41.07.17c-2.48-12-4.88-24-7.45-36C223.31,251.52,225.85,247.32,235.92,244.86Z" transform="translate(-12.84 -17.14)" style="fill:#f7f8f7"/><path d="M274,314.53c2.68,17,2.68,17-14.61,17a43,43,0,0,0-4.95,0c-6.27.74-12.07.32-15.92-5.68l-2.46-11.23C248.7,313.93,261.35,314.06,274,314.53Z" transform="translate(-12.84 -17.14)" style="fill:#f7f8f7"/><path d="M275.39,456.53c1.89,3.89.48,8.1.92,12.15.47,4.25-3.6,5.8-7.79,6.12-5.26.41-10.68-1.43-15.78,1.14l-8.12,0V456.41Z" transform="translate(-12.84 -17.14)" style="fill:#f7f7f5"/><path d="M242.69,359.91c.27-9,2.73-10.94,11.67-9.18,1.38.28,2.78.43,4.18.62,5.43.76,12.58-3.54,15.92,1.52,2.5,3.79.8,10.35,1,15.68-10.79.42-21.58,1-32.37.11C242.94,365.75,242.81,362.83,242.69,359.91Z" transform="translate(-12.84 -17.14)" style="fill:#f6f5f1"/><path d="M282.69,214.42c-7.18-2.66-14.24-1.38-21.25.71-2,.59-4.41,2.05-5.45-.67s1.89-3.32,3.69-4.09A44.54,44.54,0,0,1,274,207.21a52.91,52.91,0,0,1,15.83,3.26c1.7.61,4.15,1.29,3.63,3.59-.68,3-3.31,1.77-5.29,1.47S284.52,214.8,282.69,214.42Z" transform="translate(-12.84 -17.14)" style="fill:#e69d78"/><path d="M325,131.11c-1,2.08-2.73,1.66-3.92.52-7.32-7.06-15.93-7.11-25.06-5-2.94.68-5.38-.28-5.69-3.53-.39-4,2.84-3.51,5.36-3.61,9.94-.41,20-1.17,27.08,8.07C323.56,128.64,325.05,129.26,325,131.11Z" transform="translate(-12.84 -17.14)" style="fill:#693811"/><path d="M312.42,149.14c0,4.49-2.35,6.92-6.35,7.07s-6.51-2.32-6.55-6.5c0-3.81,2.05-6.09,5.92-6.36C309.68,143.06,311.86,145.33,312.42,149.14Z" transform="translate(-12.84 -17.14)" style="fill:#382c21"/><path d="M246.55,119.51c3.62,0,6.21.06,8.79,0,2.39-.07,3.64,1.24,3.54,3.37-.09,1.85-.78,3.82-3.25,3.86a17.06,17.06,0,0,1-4.91-.34c-7.82-2.27-14.82-1.1-21.09,4.29-1.3,1.12-3.28,3-4.89,1s.83-3.11,2-4.44C232.35,121,239.17,118.15,246.55,119.51Z" transform="translate(-12.84 -17.14)" style="fill:#76431d"/><path d="M249,149.57c-.63,4.39-2.82,7-7,6.66s-6.44-3.06-6.13-7.11c.27-3.69,2.75-5.89,6.59-5.86C246.76,143.29,248.7,145.85,249,149.57Z" transform="translate(-12.84 -17.14)" style="fill:#3b3123"/><path d="M280.07,422.31c-3.72,3-4.68,4.85-3.75,8.25,1.7,6.15-.69,8.58-7.09,8.67-4.72.06-9.43,0-14.14,0-7.2,0-12.18-8.23-9.19-14.95,1-2.37,3-1.94,4.78-2C259.85,422.28,269,422.31,280.07,422.31Z" transform="translate(-12.84 -17.14)" style="fill:#f8f7f7"/><path d="M404.93,74a67.73,67.73,0,0,0-14-8.35c-17.55-8.16-36.08-13-55-16.35-5.53-1-8.47-3.42-10.5-8.63-3-7.7-5.74-15.64-11.1-22.17l-6.08-1.32c-1.05.86-2.35.11-3.47.52q-29,.39-58,.75c-6.4.07-10.85,2.77-12.9,9.11-1.77,5.48-3.85,10.86-5.33,16.41-1,3.81-3.06,5.36-6.8,6.13a337.44,337.44,0,0,0-39.59,10.62c-9.07,3-18,6.34-26.37,11.17-3.82,2.21-7.47,4.68-10.2,8.29-3.58,4.73-3.23,6.32,1.84,8.93a34.88,34.88,0,0,0,10.33,3.24c10.44,1.73,20.89,3.34,31.34,5,6.84,1,10.36-5.85,16.22-7.46a34.4,34.4,0,0,0,1.6,7.69,33.42,33.42,0,0,1,6.32-.35q.69,0,1.38-.06c-1-3.77,1-12.35,2.78-17.86,2.17-6.78-8-3.24-1-2.47,4.35.49,20.72,0,25.16-.1,9.77-.67,19.53-1.55,29.34-1.41,14.94.24,29.87-.52,44.81.06,5.61.22,8.22,2.57,9.69,8,1.34,4.89.5,10.6,4.64,14.59,2.32-.17,4.64-.32,7-.52,17.25-1.42,34.51-2.78,51.53-6.09,4.81-.93,9.6-2.07,14.31-3.45,3.4-1,8.09-1.67,8.61-5.64C411.94,78.37,407.7,76.2,404.93,74Z" transform="translate(-12.84 -17.14)" style="fill:#723f1f"/><path d="M163.24,72.68c8.16-4.68,17.17-7.12,25.95-10.17,26.22-9.12,53.32-11.85,80.88-11.69,15.76.09,31.51-.19,47.26.46,19.32.8,37.8,5.84,56.1,11.64,8.08,2.56,16.11,5.42,22.92,11.8-1.52-.33-3-.68-4.57-1-26-5.2-52.34-6.49-78.71-7.18-43.44-1.13-86.79.12-129.93,5.69C177,73,170.89,74.06,164.77,75,162.91,75.13,162.66,74.19,163.24,72.68Z" transform="translate(-12.84 -17.14)" style="fill:#fff"/><path d="M232,48.23c.94-7.83,4-14.24,6.15-20.88,1.59-4.89,6.16-5,10.36-5,14.69-.22,29.37-.39,44.06-.6q6.57-.09,13.14-.25c4.91-.12,8.37,1.79,10.21,6.69,2.36,6.3,5.83,12.16,7.82,19.32C292.91,46.2,262.66,46.88,232,48.23Z" transform="translate(-12.84 -17.14)" style="fill:#fff"/><polygon points="195.22 80.34 179.28 80.17 192.86 69.05 195.22 80.34" style="fill:#723f1f"/><path d="M213.26,97.18s57.4-27.54,116.76.7l-5.29-30.27L215.42,68.85Z" transform="translate(-12.84 -17.14)" style="fill:#723f1f"/></svg>