<svg id="Layer_1" data-name="Layer 1" xmlns="http://www.w3.org/2000/svg" viewBox="0 0 530.4 424.96"><ellipse id="SHADOW" cx="265.2" cy="416.5" rx="265.2" ry="8.46" style="fill:#e5f1ef"/><ellipse cx="115.96" cy="322.38" rx="92.42" ry="89.71" style="fill:none;stroke:#423c52;stroke-linecap:round;stroke-miterlimit:10;stroke-width:4px"/><path d="M116.37,439.71C88,423.76,68.84,393.94,68.84,359.79" transform="translate(-55.2 -32.12)" style="fill:none;stroke:#423c52;stroke-linecap:round;stroke-miterlimit:10;stroke-width:4px"/><ellipse cx="403.22" cy="322.38" rx="92.42" ry="89.71" style="fill:none;stroke:#423c52;stroke-linecap:round;stroke-miterlimit:10;stroke-width:4px"/><path d="M509.06,268.27c33,17.13,54,52.25,50.39,90.71" transform="translate(-55.2 -32.12)" style="fill:none;stroke:#423c52;stroke-linecap:round;stroke-miterlimit:10;stroke-width:4px"/><path d="M458.42,354.49l-53.9-158A6.66,6.66,0,0,1,408.9,188a7.21,7.21,0,0,1,2.16-.33h50.36c13.69,0,24.79,10.77,24.79,24h0c0,13.29-11.1,24.06-24.79,24.06h-8.86a8.75,8.75,0,0,1-7.21-3.72" transform="translate(-55.2 -32.12)" style="fill:none;stroke:#423c52;stroke-linecap:round;stroke-miterlimit:10;stroke-width:4px"/><ellipse cx="403.12" cy="322.61" rx="3.84" ry="3.73" style="fill:#fff;stroke:#423c52;stroke-linecap:round;stroke-miterlimit:10;stroke-width:4px"/><path d="M234.43,255.17l-63.5,99.31h164l49.7-77.73a47.36,47.36,0,0,1,40-21.58Z" transform="translate(-55.2 -32.12)" style="fill:none;stroke:#423c52;stroke-linecap:round;stroke-miterlimit:10;stroke-width:4px"/><path d="M409.16,209.27a47.38,47.38,0,0,1,40-21.58" transform="translate(-55.2 -32.12)" style="fill:none;stroke:#423c52;stroke-linecap:round;stroke-miterlimit:10;stroke-width:4px"/><rect x="210.11" y="356.67" width="47.1" height="6.77" style="fill:none;stroke:#423c52;stroke-linecap:round;stroke-miterlimit:10;stroke-width:5px"/><path d="M208.61,228.29h51.28a4.58,4.58,0,0,1,4.65,4.52v.86a4.58,4.58,0,0,1-4.65,4.52H208.61a4.59,4.59,0,0,1-4.66-4.52v-.86A4.59,4.59,0,0,1,208.61,228.29Z" transform="translate(-55.2 -32.12)" style="fill:none;stroke:#423c52;stroke-linecap:round;stroke-miterlimit:10;stroke-width:4px"/><line x1="179.05" y1="223.05" x2="179.05" y2="206.07" style="fill:none;stroke:#423c52;stroke-linecap:round;stroke-miterlimit:10;stroke-width:5px"/><ellipse cx="115.73" cy="322.36" rx="3.84" ry="3.73" style="fill:#fff;stroke:#423c52;stroke-linecap:round;stroke-miterlimit:10;stroke-width:4px"/><path d="M311.06,354.48H258.42a11.52,11.52,0,0,1-11.68-11.34,11.08,11.08,0,0,1,1.12-4.85l53.68-110H228.37a27.19,27.19,0,0,1-24.43-14.85l59.62-44.06h84.95c30.27,0,49.47,31.49,34.89,57.24Z" transform="translate(-55.2 -32.12)" style="fill:#423c52"/><g id="SHOES-2"><path d="M311.06,354.48c-1.7,4-7,21,2.38,24.82,8.84,3.64,8,8.58,8,8.58h-58a8.25,8.25,0,0,1-8.37-8.13,7.92,7.92,0,0,1,.45-2.64l8-22.62Z" transform="translate(-55.2 -32.12)" style="fill:#907b00"/><path d="M299.45,360.79h10.42A2.14,2.14,0,0,1,312,362.9h0a2.13,2.13,0,0,1-2.16,2.1H308.3" transform="translate(-55.2 -32.12)" style="fill:none;stroke:#fff;stroke-miterlimit:10;stroke-width:4px"/><path d="M299.45,365h10.42a2.13,2.13,0,0,1,2.16,2.1h0a2.13,2.13,0,0,1-2.16,2.1H308.3" transform="translate(-55.2 -32.12)" style="fill:none;stroke:#fff;stroke-miterlimit:10;stroke-width:4px"/><path d="M321.43,387.89h-58a8.26,8.26,0,0,1-8.38-8.13,8,8,0,0,1,.46-2.65l.56-1.56a8.3,8.3,0,0,0,8.28,6.93h54.4C321.88,385.29,321.43,387.89,321.43,387.89Z" transform="translate(-55.2 -32.12)" style="fill:#fff"/></g><path d="M462.7,194.51s19.09,1.65,21.92-7.93-.95-23.11-6.49-26.41c-1.18-.7-22.95-1.2-22.95-1.2l-14.37,30.89c17.69.2,24.45-1.68,24.45-1.68S461.06,189,462.7,194.51Z" transform="translate(-55.2 -32.12)" style="fill:#ffdb00"/><path d="M476.9,193a8.05,8.05,0,0,0,2.34-3.68A26.86,26.86,0,0,0,479.9,178" transform="translate(-55.2 -32.12)" style="fill:none;stroke:#423c52;stroke-linecap:round;stroke-linejoin:round"/><path d="M440.81,189.86l24.57-2a5.38,5.38,0,0,0,5-5.29V179" transform="translate(-55.2 -32.12)" style="fill:none;stroke:#423c52;stroke-linecap:round;stroke-linejoin:round"/><polygon id="NECK-3" points="297.58 35.08 292.84 47.39 284.9 47.27 253.64 46.81 275.18 19.34 297.58 35.08" style="fill:#ffdb00"/><path id="HEAD-5" d="M340.19,51.46l2.37,13.65a8.09,8.09,0,0,0,8,6.6h11.93a4.69,4.69,0,0,0,4.75-4.62c0-.14,0-.28,0-.42l-.55-5.75h1.82a1.71,1.71,0,0,0,1.74-1.68,1.43,1.43,0,0,0-.07-.46l-3.82-13.27Z" transform="translate(-55.2 -32.12)" style="fill:#ffdb00"/><path d="M335.7,51.46h6.59V63.24H335.7a5.47,5.47,0,0,1-5.55-5.37h0v-1a5.46,5.46,0,0,1,5.54-5.38h0Z" transform="translate(-55.2 -32.12)" style="fill:#ffdb00"/><path d="M330.57,57.85h0c0,3.25,3.75,6.13,7.09,6.13h6.76" transform="translate(-55.2 -32.12)" style="fill:none;stroke:#423c52;stroke-linecap:round;stroke-miterlimit:10"/><path d="M339.31,58.25a3.65,3.65,0,0,0-3.71-3.6" transform="translate(-55.2 -32.12)" style="fill:none;stroke:#423c52;stroke-linecap:round;stroke-miterlimit:10"/><ellipse cx="303.36" cy="23.65" rx="1.02" ry="1.33" style="fill:#423c52"/><path d="M353.8,51.46a21.66,21.66,0,0,1,5.78-1.54" transform="translate(-55.2 -32.12)" style="fill:none;stroke:#423c52;stroke-linecap:round;stroke-miterlimit:10"/><g id="CAP"><path d="M328.07,53.54l.46-1.8A25.14,25.14,0,0,1,351.36,33l5.68-.39a7.82,7.82,0,0,1,8.49,6.5l.85,5.72Z" transform="translate(-55.2 -32.12)" style="fill:#fff;stroke:#423c52;stroke-linecap:round;stroke-linejoin:round"/><line x1="272.87" y1="21.42" x2="326.37" y2="9.5" style="fill:none;stroke:#423c52;stroke-linecap:round;stroke-miterlimit:10"/></g><path id="BEARD" d="M348,49.62c-3.25,7.18.46,11.68,1.58,12.5,3.19,2.32,14.46-.49,17.1-1.2,0,0,2.26,14.94-.31,15.33-4.74.71-21.54-4.35-23.81-8.53-.75-1.38.23-6.25.09-9.64-.11-2.57-.4-6.62-2.5-6.62Z" transform="translate(-55.2 -32.12)" style="fill:#423c52"/><path d="M348,79.51,294.6,55.34A10.7,10.7,0,0,0,281,59.51l-14.41,24.3c-2.92,5.63,2.17,12,8.51,10.72Z" transform="translate(-55.2 -32.12)" style="fill:#fe552f"/><path d="M309.44,78.93h32.22a34.69,34.69,0,0,1,30.68,18.2C383.09,117.34,407.28,148.07,457,155l-16.15,35.11s-53.2,21.19-112.72-20.73H299.57A108.81,108.81,0,0,0,235,190.55l-31,22.9S183.52,172,228.32,125.9C244,109.77,257,99.13,267.07,92.13A74.34,74.34,0,0,1,309.44,78.93Z" transform="translate(-55.2 -32.12)" style="fill:#2cae5c"/><path d="M331.32,92C345.4,118.44,383,164.68,448,173.78" transform="translate(-55.2 -32.12)" style="fill:none;stroke:#fff;stroke-linecap:round;stroke-miterlimit:10;stroke-width:5px"/><path d="M326.72,93.42c13.55,27.1,53.48,75.1,119.24,84.29" transform="translate(-55.2 -32.12)" style="fill:none;stroke:#fff;stroke-linecap:round;stroke-miterlimit:10;stroke-width:5px"/><path d="M267.08,91.79a74.38,74.38,0,0,1,42.36-13.17h38" transform="translate(-55.2 -32.12)" style="fill:none;stroke:#423c52;stroke-linecap:round;stroke-miterlimit:10"/><path d="M328.61,170.37c-9.28-6.2-23.84-26.5-23.84-26.5" transform="translate(-55.2 -32.12)" style="fill:none;stroke:#423c52;stroke-linecap:round;stroke-miterlimit:10"/><path d="M456.32,155.63l-15.83,34.79s-53.21,21.19-112.72-20.73" transform="translate(-55.2 -32.12)" style="fill:none;stroke:#423c52;stroke-linecap:round;stroke-miterlimit:10"/></svg>