<svg id="Layer_1" data-name="Layer 1" xmlns="http://www.w3.org/2000/svg" viewBox="0 0 276 276"><path d="M319.69,411.11h-1.77c-11.59,0-23.17,0-34.76,0-1.23,0-1.47-.36-1.46-1.51q.07-10.14,0-20.28c0-1,.2-1.26,1.23-1.26q30.35,0,60.68,0c.91,0,1.38.19,1.51,1.18,2.36,17.86-.49,34.65-10.8,49.68-9,13.15-21.75,21-37.26,24.1-20.18,4.08-38.92.52-55.57-11.84-14.72-10.94-23.36-25.79-25.94-43.89C210.68,373,231.42,341.5,264.94,333c22.39-5.68,42.86-1.2,60.54,14.23,1,.85,1,1.24,0,2.14-5.47,5.16-10.87,10.4-16.28,15.62-.5.48-.82.9-1.56.18-13.07-12.59-36.16-13.12-51.11-1.06-12.09,9.76-17.51,22.53-16,38,1.74,18.29,14.63,33.08,32.37,36.86,12.12,2.59,23.72.81,33.82-6.86a33.05,33.05,0,0,0,12.63-19.21C319.47,412.34,319.56,411.79,319.69,411.11Z" transform="translate(-142.38 -259.65)" style="fill:#2cae5c"/><circle cx="138" cy="138" r="137" style="fill:none;stroke:#2cae5c;stroke-width:4px"/></svg>