<svg id="Layer_1" data-name="Layer 1" xmlns="http://www.w3.org/2000/svg" viewBox="0 0 410.76 392.77"><path d="M220.75,37.45c-2.85.16-5.7.33-8.55.47a9.22,9.22,0,0,1-2.91-.26c-1.49-.39-1.66-.78-1-2.22a8.82,8.82,0,0,1,2.24-2.73,39.21,39.21,0,0,1,6.35-4.39,90.34,90.34,0,0,1,9.87-5,2.07,2.07,0,0,0,1.46-2c.08-1.53.34-3.05.5-4.57a3.34,3.34,0,0,1,2.91-3.1c5.09-1.14,10.18-2.31,15.27-3.46.27-.17.66-.05.89-.33h1.68A20.74,20.74,0,0,1,253.63,15a3.29,3.29,0,0,0,3.25,1.65,60.45,60.45,0,0,1,15.42,1.15,18.39,18.39,0,0,1,4.17,1.38c.85.43,2.09.75,2.17,1.77s-1.12,1.5-2,2c-1.16.62-2.37,1.19-3.59,1.7a128.58,128.58,0,0,1-13.27,4.49l-1.81.53c-1.31-.81-1.41-2.34-2-3.53a2.46,2.46,0,0,0-3-1.52c-4,.69-7.88,1.73-11.84,2.51-2.6.52-5.13,1.3-7.67,2a26.2,26.2,0,0,1-3.54.23A2.83,2.83,0,0,0,227,32.3c-.42,3.9,1.19,5.75,5.1,5.93a18.19,18.19,0,0,1,4.36.23.88.88,0,0,1,.57,1.07,8.56,8.56,0,0,1-12.43-4.93C223.16,35.34,222.61,37.31,220.75,37.45Z" transform="translate(-6.13 -9.89)" style="fill:#433d53"/><path d="M247.8,9.89a.75.75,0,0,1-.89.33.61.61,0,0,1,.05-.33Z" transform="translate(-6.13 -9.89)" style="fill:#b3b1bb"/><path d="M182.19,169.41c0-1.74-.1-3.48-.1-5.22q0-37.26,0-74.51a34.54,34.54,0,0,1,8.63-23.61,40.41,40.41,0,0,1,6.75-5.92,3.31,3.31,0,0,1,1.36-1.34c4.43-1.38,8.65-3.36,13.37-3.91A36.58,36.58,0,0,1,238.77,62,4.21,4.21,0,0,0,240.53,63c2.45,1.21,3.84,3.49,5.45,5.52a34,34,0,0,1,2.64,4A38.53,38.53,0,0,1,253,87.29c0,2.64,0,5.28,0,7.92a2.27,2.27,0,0,1-.12.63c-1.38,2.34-3.21,4.36-4.86,6.67,1.6-1.86,3-3.75,4.34-5.61a5.32,5.32,0,0,1,.36-.47c.17-.24.34-.48.52-.71,4.95-6.41,10.48-12.35,15.67-18.56,2.49-3,5.07-5.9,7.7-9.17-2.14-.32-4-.06-5.85-.2-.72-.05-1.73.35-2-.87,1.85-1.21,3.9-.45,5.86-.6,1.17-.09,2.23-.15,2.57-1.53,1.14-1.21,1,.31,1.49.75,2.71-3,5.24-6.17,7.89-9.23.9-1,1.65-2.27,3.24-2.38,11.86,2,23.64,4.41,35.47,6.56a1.76,1.76,0,0,1,1.5,1c-2,5-4.31,9.83-6.51,14.73-8.19,18.27-16.47,36.5-24.63,54.78-2.85,6.38-6.7,11.91-12.34,16.11a36.75,36.75,0,0,1-21,7.44c-.49,0-1,.08-1.46.13a11.3,11.3,0,0,1-5.57.16c-10.66-1.44-19.92-6.1-28.41-12.5a73.66,73.66,0,0,1-19.38-21.69,19.93,19.93,0,0,1-1.58-3.17c-.2-.88-.58-1.69-.79-2.56-.11-.3-.24-.6-.24-.62.05.15.19.59.34,1,.32,1,.62,2.09,1,3.12,3.7,14.19,10.85,26.17,22.58,35.22.69.54,1.58,1,1.5,2.09-2.51,3-5.91,4.64-9.42,6a70.53,70.53,0,0,1-21,4.31,109.49,109.49,0,0,1-15.26.13c-.92-.07-1.49.22-1.58,1.2a5.36,5.36,0,0,1-.26,1.64A.72.72,0,0,1,182.19,169.41Z" transform="translate(-6.13 -9.89)" style="fill:#f36f45"/><path d="M260.94,163.72c2.92,6.48,7.39,11.83,12.45,16.68,6.45,6.2,13.06,12.23,19.57,18.36a355.27,355.27,0,0,1,37.78,40.93,264.36,264.36,0,0,1,42.37,80.58c.11.33.16.68.24,1-.17,1.08-1.17,1.11-1.88,1.41-6.88,2.92-13.87,5.58-20.75,8.47-2.08.88-2.63.58-3.35-1.6a277,277,0,0,0-18.69-44.08,270,270,0,0,0-30.63-45.14c-9.79-11.79-20.74-22.46-31.66-33.14-6.63-6.48-13.85-12.37-20.23-19.11-5-5.26-9.2-11.07-11-18.26a18.71,18.71,0,0,1-.51-8.89c.61-2.7,1-2.95,3.51-1.84a64,64,0,0,0,20.15,5.38A3.44,3.44,0,0,0,260.94,163.72Z" transform="translate(-6.13 -9.89)" style="fill:#2cae5c"/><path d="M260.94,163.72c-.31,1.57-.31,1.49-1.74,1.38a62.74,62.74,0,0,1-16.3-3.49,53.08,53.08,0,0,1-5.79-2.4c-1.25-.61-1.5-.47-1.84.9a19.22,19.22,0,0,0,.25,9.29,37.39,37.39,0,0,0,6.92,13.49,83,83,0,0,0,11.72,12.21c2,1.75,3.88,3.62,5.83,5.41,9.29,8.57,18.35,17.39,27,26.58a285.22,285.22,0,0,1,25,30.56,261.11,261.11,0,0,1,23.25,39.91,257.82,257.82,0,0,1,10,24.37c1,2.77,2.05,5.49,2.8,8.32.28,1.05.82,1.09,1.69.73,3.16-1.31,6.34-2.56,9.5-3.85l14.1-5.84a14.82,14.82,0,0,1,1.54,4.28,85.94,85.94,0,0,0,5.4,13.79,52.18,52.18,0,0,0,3,5,23.44,23.44,0,0,0,19.06,10.84,36.77,36.77,0,0,1,6.43.84,8.3,8.3,0,0,1,5.92,4.84c.64,1.39,1.34,2.76,1.93,4.17.52,1.23.32,1.77-.85,2.38s-2.51,1.19-3.77,1.8a1.59,1.59,0,0,1-2.22-.45c-.74-1-1.62-.87-2.58-.41s-2.13,1-3.21,1.52-1.62,1.06-1.22,2.28a1.46,1.46,0,0,1-.95,1.85c-1,.51-2,.91-3,1.44-1.27.69-2.41,1.1-3.43-.42a1.27,1.27,0,0,0-1.71-.26c-1.38.66-2.79,1.27-4.16,2a1.4,1.4,0,0,0-.73,1.93,2.08,2.08,0,0,1-1.5,2.23A21.41,21.41,0,0,0,385,382c-1.35.72-2.65,1.32-3.79-.4a1.18,1.18,0,0,0-1.54-.21c-1.39.65-2.78,1.29-4.16,2a1.46,1.46,0,0,0-.91,1.87,1.65,1.65,0,0,1-1.09,2.17c-1.19.58-2.39,1.14-3.59,1.7-.83.38-1.65.49-2.26-.35-.79-1.09-1.7-1-2.75-.43s-2.12,1.05-3.21,1.53a1.61,1.61,0,0,0-1.13,2c.3,1.31-.41,1.93-1.47,2.39s-2,.93-3,1.42-1.86.6-2.6-.39-1.54-.79-2.43-.36c-1.14.54-2.27,1.08-3.41,1.6-.93.44-1.45,1.06-1.13,2.15a1.56,1.56,0,0,1-1.06,2c-1,.48-2,1-3,1.44-2.15,1-2.54.82-3.46-1.32a165.8,165.8,0,0,1-6-16.91,26.31,26.31,0,0,0-1.62-4.72c-1.48-1.92-1.69-4.38-2.69-6.51-.45-.94-.75-1.95-1.14-2.92-3-8-7-15.51-10.79-23.1-.37-.72-1.05-1.37-.63-2.31,4.44-2.21,9.1-3.91,13.69-5.76,5-2,9.92-4.19,15-6,1.64-.59,2.14-1.29,1.52-3.08a323.68,323.68,0,0,0-12.93-32.25,263.69,263.69,0,0,0-40-60.67C285.89,228,278.1,219.74,269.88,212c-6.84-6.47-13.78-12.85-20.7-19.24A55.77,55.77,0,0,1,235.37,174a26.91,26.91,0,0,1-1.8-13.51c-8.67,7.4-19.08,9.4-29.82,10.54-6.55.69-13.12.18-19.68.35a2.58,2.58,0,0,1-1.78-.48,1.44,1.44,0,0,1-.1-1.46l.15,0a3.29,3.29,0,0,1,2.22-.36,97.47,97.47,0,0,0,32.15-2.51,35.18,35.18,0,0,0,13.73-6.41c2.46-2,2.46-2,.16-4.13a2.54,2.54,0,0,1-.45-.7,68.38,68.38,0,0,1-8.24-7.06c-8-8.18-12.95-18-16-28.93a3.75,3.75,0,0,1-.09-.82c-.06-.52-.58-1.2.46-1.33,6.26,12.17,15.46,21.6,27,28.84a55.57,55.57,0,0,0,22.6,8.33c1.65.22,3.34.19,5,.28C260.89,157.67,260.91,160.69,260.94,163.72Z" transform="translate(-6.13 -9.89)" style="fill:#433d53"/><path d="M326.77,61.45c-3.62-.7-7.24-1.43-10.86-2.11-8.42-1.58-16.85-3.13-25.27-4.71a12.55,12.55,0,0,1-1.39-.46c-.21-.53.07-.82.51-1a11.38,11.38,0,0,1,4.34.47c9.89,1.86,19.78,3.68,29.67,5.57,2.12.4,2.6.08,3.13-2,1-3.9.19-7.21-3.28-9.56-1.34-.9-1.5-1.84-.58-3.13s1.73-2.54,2.58-3.82a11.32,11.32,0,0,1,6.3-4.59c.84-.27,2.13-.61,2-1.56-.18-1.17-1.5-.54-2.32-.63-5.77-.68-10.1,1.19-12.38,6.88a21.49,21.49,0,0,1-2.36,4c-.54.8-1,2.3-2.25,1.56s-.07-1.77.39-2.56c1.65-2.83,3.36-5.63,5.13-8.56-3.41-.11-6.07.81-7.72,4a45.4,45.4,0,0,1-3.8,6.26c-.41.54-.89,1.32-1.67.89-1-.55-.32-1.37,0-2,1.46-2.61,3.07-5.13,4.69-7.89-3.11-.05-5.51.63-7,3.45a56.09,56.09,0,0,1-3.36,5.55c-.42.61-.95,1.49-1.82.9-.71-.49-.22-1.31.11-1.9q2-3.66,4.32-7.18a4.5,4.5,0,0,1,2.3-1.74,124,124,0,0,1,13.83-2.08c2.56-.29,5.08-.8,7.64-1.11a32.3,32.3,0,0,1,6.88-.06c1.56.14,1.54.2,1.37,1.81a4.12,4.12,0,0,1-.52,1.78,1.86,1.86,0,0,1-.51.75l-.2,0a.21.21,0,0,0,.35-.07c.26-.16.59,0,.84-.21,8.07-2.95,15.79-6.69,23.52-10.39A118.69,118.69,0,0,1,375,19.31a31.46,31.46,0,0,1,8.62-1.52,6.54,6.54,0,0,1,5.61,2.68,19.77,19.77,0,0,1,3.27,6.73A61.09,61.09,0,0,1,394.76,46a58.74,58.74,0,0,1-2.69,17.71,23.15,23.15,0,0,1-3.7,7.23,9.87,9.87,0,0,1-9.51,4,47.73,47.73,0,0,1-12.81-3.72c-7-2.93-13.88-6.2-21.05-8.74-5-1.76-10.06-3.31-15.18-4.7-1.08-.29-1.52,0-1.81,1A8.19,8.19,0,0,1,326.77,61.45Z" transform="translate(-6.13 -9.89)" style="fill:#433d53"/><path d="M306.22,35.5a14.77,14.77,0,0,0-2.87,3.57c-1.22,2.12-2.5,4.2-3.74,6.31-.15.25-.21.55.09.74a.49.49,0,0,0,.7-.21c.82-1.3,1.62-2.61,2.42-3.92s1.68-2.9,2.69-4.25a3.45,3.45,0,0,1,2.41-1.48c1.57-.22,3.12-.51,4.95-.81-1.84,3.06-3.53,5.85-5.21,8.65-.29.48-.59.95-.83,1.45a.63.63,0,0,0,.16.54.38.38,0,0,0,.55-.06,10.66,10.66,0,0,0,.85-1.18c1.31-2.15,2.67-4.27,3.88-6.47a6.42,6.42,0,0,1,5.65-3.68c1-.05,2.06-.16,3.3-.26L316,43.13c-.46.78-.93,1.56-1.37,2.35a.47.47,0,0,0,.25.68.44.44,0,0,0,.55-.19c.43-.63.86-1.27,1.26-1.92,1.7-2.72,3.2-5.57,5.06-8.2a4.67,4.67,0,0,1,2.87-1.92,33.93,33.93,0,0,1,9.38-.59c1,0,1.14.43.8,1.39A2.1,2.1,0,0,1,333.69,36a8.66,8.66,0,0,1-1.53.67,10.62,10.62,0,0,0-6.72,5.28c-.37.59-.79,1.15-1.17,1.74-.53.82-1.43,1.65-1.44,2.48s1.41,1.15,2.13,1.79c3.52,3.17,3.53,7.61,1.7,11.52-.35.76-.92.67-1.58.54q-8.83-1.68-17.69-3.33L289.7,53.36c-.4-.57,0-1.09.1-1.62-.12-1.14-1-.5-1.57-.7s-1.62.14-1.3-1.12c1.23-.65,2.6-.15,3.87-.49.85-.47,1.11-1.46,1.83-2a4.37,4.37,0,0,0,1.2-1.68,80.44,80.44,0,0,1,4.47-6.8A6.66,6.66,0,0,1,302.93,36,15.22,15.22,0,0,1,306.22,35.5Z" transform="translate(-6.13 -9.89)" style="fill:#ea7724"/><path d="M286.92,50.16c.88.62,1.87.24,2.81.32,1.3.12,1.3.08.58,1.39-1.32.8-2.71.46-4.08.2-1.71-.32-3,.06-3.67,1.85-.9,2.18-2.78,3-5,3.12-4.65,1-9.4,1-14.09,1.62-2.63.33-5.27.43-7.9.71-3,.31-4.18-.79-4.13-3.73v-.21c.12-3.3.12-3.3-3.19-3-2.83,0-2.88.08-4,2.68-.66,1.5-.84,3.27-2.26,4.39a1,1,0,0,1-.84-.47c-2.39-4.6-5-9.12-4.77-14.57a5.23,5.23,0,0,1,.28-2c.22-.34.57-.51.82-.16,2.08,3,5.33,4,8.48,5.19a1.91,1.91,0,0,1,.52.33.91.91,0,0,1,.29.52,2.49,2.49,0,0,1-.19.89c-.62,2.43,1.12.6,1.67.91,1.63-.17,3.28.07,4.88-.43a18.39,18.39,0,0,0,1.95-.31c.92-.12,1.9-.23,2.3.86a3.6,3.6,0,0,1-.44,3.4c-.48.7-1,.62-1.44-.13-.27-.45-.14-1.14-.91-1.4-1.08,1.29-.7,2.85-.75,4.33,0,.3.3.43.55.56,1.89.93,5.56-.25,6.38-2.16a21.87,21.87,0,0,0,1.59-8.16c0-1.62-.85-2.22-2.37-2.19s-2.74.66-4.15.19c-1.24-.91-.47-1.25.43-1.55,4.67-.31,9.29-1,13.93-1.54,3.19-.34,6.37-.74,9.56-1.1a9.33,9.33,0,0,1,1.67-.06c2.11.17,3,1.18,2.85,3.28-.05.76-.21,1.52-.3,2.28s-.15,1.5-.25,2.42c3.05-.11,6-.65,8.95-1a4.28,4.28,0,0,1-1.09,2.21C289.94,49.28,288.33,48.93,286.92,50.16Z" transform="translate(-6.13 -9.89)" style="fill:#443d53"/><path d="M241,26.7a106.15,106.15,0,0,1,11.54-2.57c2.77-.52,2.8-.48,4,2.07.52,1.13,1,2.3,1.43,3.45a55.73,55.73,0,0,1,1.46,6.29,1.88,1.88,0,0,1-1.17,2.34,16,16,0,0,1-2.93,1.06,2.5,2.5,0,0,1-1.25.73c-3.84.35-7.68.53-11.38-.9A3.78,3.78,0,0,1,240.24,36a38.4,38.4,0,0,1-.09-7.73A2.33,2.33,0,0,1,241,26.7Z" transform="translate(-6.13 -9.89)" style="fill:#ea7724"/><path d="M241,26.7a30,30,0,0,0-.42,7.91c.22,3.07,1.06,4,4.12,4.58a33.48,33.48,0,0,0,10.62.15c0,.83,0,1.67,0,2.5a1.05,1.05,0,0,0,.87,1.22c-.36.34-1,.57-.54,1.25.3,1.86.81,3.75-.66,5.4-.46.51-1.08.36-1.65.4a13.74,13.74,0,0,1-5.12-.85,5,5,0,0,1-1.91-1.2,31.25,31.25,0,0,1-5.58-2.31,7.31,7.31,0,0,1-3.84-3.91,1.74,1.74,0,0,1-.26-2.14,1,1,0,0,0-.1-1,7,7,0,0,1-.32-3.45,6.34,6.34,0,0,0-2.86-6.58A29.5,29.5,0,0,1,241,26.7Z" transform="translate(-6.13 -9.89)" style="fill:#dbe5e5"/><path d="M334.57,36.71a1.61,1.61,0,0,1,.85-.87l.48.49a1.07,1.07,0,0,1-.83.46A.36.36,0,0,1,334.57,36.71Z" transform="translate(-6.13 -9.89)" style="fill:#afadb6"/><path d="M182.29,170.87c5.66,0,11.33.15,17-.09,8.47-.35,16.78-1.64,24.68-4.92a32.72,32.72,0,0,0,9.32-5.92,1.48,1.48,0,0,1,1-.59,28.62,28.62,0,0,0-.39,5.68,21.78,21.78,0,0,0,2,8.89,48.51,48.51,0,0,0,8.67,13.26c5.39,6.07,11.7,11.17,17.55,16.76,7.66,7.34,15.47,14.54,22.63,22.38,3.11,3.4,6.28,6.74,9.3,10.23,5.11,5.91,10,12,14.63,18.29s8.89,12.68,12.88,19.32A257.82,257.82,0,0,1,336,301.78a294,294,0,0,1,10.85,28.09c.06.2.16.39.22.59.42,1.41.43,1.43-.94,2L333,337.79l-15.53,6.29a11.81,11.81,0,0,1-1.2.34c-1-.35-1.4-1.33-1.86-2.15a205.52,205.52,0,0,0-24.77-35.18,157.83,157.83,0,0,0-31.76-28c-5.92-4-12.17-7.39-18.1-11.34a160.78,160.78,0,0,1-25.1-20.47l-.74-.75c-2.45-2.56-2.43-2.88.54-4.58a12.56,12.56,0,0,0,5.89-8.28,35.69,35.69,0,0,0,.36-13.7,99.4,99.4,0,0,0-3.53-15.69c-.94-3.12-.94-3.12-4.12-3.13-7.76,0-15.51,0-23.26,0-2.46,0-3-.34-3.58-2.64a102.78,102.78,0,0,1-4.05-24.5,2.58,2.58,0,0,1,.15-1.23A3.71,3.71,0,0,1,182.29,170.87Z" transform="translate(-6.13 -9.89)" style="fill:#2cae5c"/><path d="M182.32,172.77a131.8,131.8,0,0,0,4.6,26.06c.54,1.82.57,1.82,2.44,1.82H214.3c2.23,0,2.26,0,2.94,2.11a91.24,91.24,0,0,1,4.26,20,37.71,37.71,0,0,1-.41,10c-.93,5.2-3.58,9-8.74,10.81a7.51,7.51,0,0,0,1.77,2.37,161.88,161.88,0,0,0,31,24.69c4.37,2.74,9,5.13,13.11,8.23.25,2.2-.73,4.12-1.56,6a43.69,43.69,0,0,1-7.77,11.62c-6.68,7.39-14.95,12.54-23.71,17-13.32,6.8-27.07,12.7-40.7,18.83-10.59,4.7-21.27,9.2-31.35,14.95a37.25,37.25,0,0,0-11.8,10.19c-3.41,4.61-4.28,9.83-3.93,15.43.18,2.93.89,6-1,8.72a9.84,9.84,0,0,1-4.32,4.67c-1.15.65-2.23,1.42-3.35,2.13a1.32,1.32,0,0,1-1.89-.16,22.55,22.55,0,0,1-3.09-4.93c-.1-.23.05-.54.08-.82.87-2.45-.65-4.1-2-5.81a1.51,1.51,0,0,0-1.5-.59c-1.76.29-2.71-.75-3.54-2-.56-.89-1.11-1.78-1.61-2.7a2.2,2.2,0,0,1-.15-2,4.78,4.78,0,0,0-4-6.41,2.63,2.63,0,0,1-2-1,35,35,0,0,1-2.3-3.49,2,2,0,0,1-.2-2c1.6-2.73-.74-4.22-1.85-6.08-.31-.51-1-.44-1.54-.47-3-.19-5.81-4.53-4.73-7.32.75-1.93-1.66-5.7-3.76-5.66a3.26,3.26,0,0,1-3.2-1.89c-1.06-1.9-2.68-3.56-1.28-6.12.72-1.31-2.21-4.92-3.78-5-2.27-.18-5.3-3.55-5.23-5.83,0-1.22.9-1.81,1.81-2.37a106,106,0,0,1,12.77-6.76,220.49,220.49,0,0,0,38.39-22.18c3.58-2.53,7.48-4.61,11.15-7a3.68,3.68,0,0,1,1.58-.51c6.39-4,12.91-7.81,18.93-12.33,10-7.51,15.32-17.69,16.08-30.19.08-1.32.08-2.65.08-4q0-28.68,0-57.37A5.45,5.45,0,0,1,182.32,172.77Z" transform="translate(-6.13 -9.89)" style="fill:#433d53"/><path d="M240.73,63.57c-.81.21-1.28-.35-1.83-.77a35.22,35.22,0,0,0-26.52-7.34A33,33,0,0,0,202,58.41c-1,.49-2.24.16-3.14.93-.68.49-1.51,0-2.21.37-4.28.62-8.48,1.67-12.7,2.57-11.8,2.54-23.56,5.23-35.16,8.53A104.5,104.5,0,0,0,102,99.06c-.48.49-1,1-1.5,1.44a1.09,1.09,0,0,1-.07-1.21,101.15,101.15,0,0,1,19.09-16.11A122.29,122.29,0,0,1,132,76a2.89,2.89,0,0,1,2-1c.27-.06.48-.26.75-.33-.32,0-.51.28-.8.31a17.84,17.84,0,0,1-2.77.62c-6.62,1.68-13.14,3.71-19.67,5.69C83.33,89.88,55.54,99.48,28,109.81c-.59.22-1.19.4-1.78.6-.23-.44-.3-.84.24-1.12l21.65-8.05c.86-1.15,2.22-.95,3.39-1.23q10-3.44,19.92-6.86c4.94-1.68,9.89-3.32,14.84-5,.36-.58,1-.46,1.54-.65a5.14,5.14,0,0,0,.91-.35,11.35,11.35,0,0,1-1.4.45c-.77.2-1.59-.19-2.35.17a85.36,85.36,0,0,1-15.25.08c-1.73-.19-3.48-.28-5.19-.6a5.62,5.62,0,0,0-3,.23c-6,2.19-11.5,1.1-16.75-2.2a4.25,4.25,0,0,1-.5-.55c2.86-2.15,6.15-2.46,9.46-2.7.07,0,.15-.09.2-.07A110.26,110.26,0,0,0,64.78,85.8c.43.72,1.19.65,1.86.73a81.7,81.7,0,0,0,33.17-2.77c16.69-5.05,33.4-10,50.26-14.47,8.36-2.2,16.79-4.11,25.19-6.16l2-.49a.9.9,0,0,1,.73-.11c-.24-.06-.51,0-.72-.2-13.86-.17-27.07-3.42-39.92-8.37a2.53,2.53,0,0,0-3.09.61c-4.59,4.19-9.93,5-15.77,3.11a1,1,0,0,1-.78-.7c3.39-4,7.88-5.42,13.47-5.21-1.93-1.38-3.93-1.8-5.57-2.89-.29-.34-.84-.61-.26-1.15,5.41,2.48,10.86,4.87,16.49,6.8.33.11.67.17,1,.26s.85,0,1.24.19a2.71,2.71,0,0,0,.76.38l.08,0-.13-.06c-.29-.08-.48-.31-.74-.39a1.1,1.1,0,0,1-.74-.6,17.91,17.91,0,0,1-6.76-10.43,7.83,7.83,0,0,1,4.52.65c.83.29,1.07,1.05,1.28,1.77,1.39,4.64,4.47,7.85,8.56,10.23a4.24,4.24,0,0,1,1.47,1.12,86.41,86.41,0,0,0,13.89,2.84,85.86,85.86,0,0,0,14,.61c5.19-.14,10.2-1.38,15.25-2.36,1.23-.24,2.46-.46,3.69-.72a7.55,7.55,0,0,0,3.29-1.24c2.71-2.14,6-2.57,9.26-2.95,9.79-1.14,18.88.81,26.95,6.73a6.15,6.15,0,0,1,2.11,2A1,1,0,0,1,240.73,63.57Z" transform="translate(-6.13 -9.89)" style="fill:#443d53"/><path d="M240.66,62.7a37.15,37.15,0,0,0-37-6.27c-.39.14-.79.25-1.18.37a6.2,6.2,0,0,1,.62-.81c3.59-3.34,6.59-7.25,10.16-10.6.5-.47.91-1,1.36-1.54A29,29,0,0,1,227.86,48c5.06,2.92,10.06,6,13.64,10.84l.36.36C242.59,60.79,241.57,61.72,240.66,62.7Z" transform="translate(-6.13 -9.89)" style="fill:#e5f1ef"/><path d="M241.5,58.88c-2.38-2-4.63-4.22-7.16-6.07-4.87-3.57-10-6.52-16-8-1.25-.31-2.64-.09-3.71-1,2.17-2,4.06-4.26,6.09-6.4l4.4-4c.27.39.07,1.11.2,1.72a5.29,5.29,0,0,0,5.24,4.53c2,.08,4,0,6.07,0,.09.71.18,1.43.26,2.14A21,21,0,0,0,239,53.59C239.84,55.36,240.67,57.12,241.5,58.88Z" transform="translate(-6.13 -9.89)" style="fill:#ea7724"/><path d="M100.44,99.29c0,.4,0,.8.07,1.21-.55,1.2-1.05,2.43-1.66,3.6a16,16,0,0,1-16,8.83h-.21c-1.55-.17-1.71-.35-1.26-1.81a15.58,15.58,0,0,1,7.19-9.17,19.13,19.13,0,0,1,8.58-2.43A14.41,14.41,0,0,0,100.44,99.29Z" transform="translate(-6.13 -9.89)" style="fill:#2cae5c"/><path d="M26.48,109.29l-.24,1.12c-.76,1.33-1.43,2.71-2.29,4-4,5.87-9.67,7.89-16.56,6.92-1.37-.2-1.51-.46-1-1.82,2.39-6,6.87-9.31,13.18-10.24A22.36,22.36,0,0,1,26.48,109.29Z" transform="translate(-6.13 -9.89)" style="fill:#2cae5c"/><path d="M64.78,85.8a23.09,23.09,0,0,1-11.07-3.75,23,23,0,0,1-7.18-9.81,3,3,0,0,1-.38-2.33A16.45,16.45,0,0,1,53,71.33,20.63,20.63,0,0,1,61.88,79,29.13,29.13,0,0,1,65,84.84C65.14,85.2,65.47,85.62,64.78,85.8Z" transform="translate(-6.13 -9.89)" style="fill:#2cae5c"/><path d="M152.42,57.67c-2.2-.46-3.79-1.94-5.4-3.32a16.49,16.49,0,0,1-5.15-7.9,4.56,4.56,0,0,0-.76-1.9,4.39,4.39,0,0,0,0-2.07,14.15,14.15,0,0,1,.23-5.15c.64-.38,1.1.09,1.54.32,4.82,2.5,7.59,6.58,8.85,11.75A28.75,28.75,0,0,1,152.42,57.67Z" transform="translate(-6.13 -9.89)" style="fill:#2cae5c"/><path d="M125.39,47.73c.09.38.17.77.26,1.15-6.41-.27-11.4-3.21-15.29-8.18a20.52,20.52,0,0,1-2.81-4.87c-.37-.9-.21-1.12.75-1a17.24,17.24,0,0,1,7.48,2.42A24.89,24.89,0,0,1,124,45.65C124.46,46.35,124.93,47,125.39,47.73Z" transform="translate(-6.13 -9.89)" style="fill:#2cae5c"/><path d="M106.88,98.51c.45-.4.68-1.38,1.58-.55,4.41,4.08,6.94,10.89,2.06,17.46-1.4-.69-2.17-2-3.2-3.11-1.53-.91-1.94-2.51-2.15-4C104.72,104.87,104.87,101.51,106.88,98.51Z" transform="translate(-6.13 -9.89)" style="fill:#2cae5c"/><path d="M60.64,100.48C60,108,52.75,114.07,46,115,45.59,109.78,52.23,103.16,60.64,100.48Z" transform="translate(-6.13 -9.89)" style="fill:#443e54"/><path d="M47.66,100.77a21.59,21.59,0,0,1-7.69.09,18.93,18.93,0,0,1-9.67-5.37c4-2.87,14.07-1.76,20.35,4.09C50,100.71,48.74,100.59,47.66,100.77Z" transform="translate(-6.13 -9.89)" style="fill:#2cae5c"/><path d="M106.88,98.51a2.88,2.88,0,0,1-.23,1.42,13.69,13.69,0,0,0,.67,12.38c-.69.67-1.36,1.39-2.09,2-1.42,1.22-1.58,1.18-2.31-.47a11.87,11.87,0,0,1,0-10.07A14.54,14.54,0,0,1,106.88,98.51Z" transform="translate(-6.13 -9.89)" style="fill:#453f54"/><path d="M47.66,100.77l3-1.19c.2.32.55.35.87.43a10.69,10.69,0,0,1-3.39,1.23Z" transform="translate(-6.13 -9.89)" style="fill:#ded4c9"/><path d="M131.14,75.66a7,7,0,0,1,3-.86c.12.11.15.21.09.29s-.1.11-.15.11L132,76C131.8,75.72,131.44,75.76,131.14,75.66Z" transform="translate(-6.13 -9.89)" style="fill:#c6d5d9"/><path d="M87.92,87.79l-1.64.38c-.36-.38-.88-.19-1.3-.38a6.34,6.34,0,0,1,2.58-.43C88,87.27,88.09,87.4,87.92,87.79Z" transform="translate(-6.13 -9.89)" style="fill:#bfcfd4"/><path d="M196.61,59.71a3.15,3.15,0,0,1,2.21-.37,3.21,3.21,0,0,1-1.36.81C197.28,59.81,196.91,59.83,196.61,59.71Z" transform="translate(-6.13 -9.89)" style="fill:#e4d9d1"/><path d="M143.35,54.33l.84.42a.32.32,0,0,1,.12.34c0,.11-.08.17-.12.17-.47-.06-1,0-1.31-.47Z" transform="translate(-6.13 -9.89)" style="fill:#d2d3d8"/><path d="M177.31,62.33c.26-.09.65-.08.65.15s-.4.23-.66.16C177.3,62.53,177.3,62.43,177.31,62.33Z" transform="translate(-6.13 -9.89)" style="fill:#b3afb8"/><path d="M212.56,32.51a40.24,40.24,0,0,1,6.29-4.11,65.5,65.5,0,0,1,20.72-7.6c4.17-.87,8.31-1.83,12.51-2.55a59.27,59.27,0,0,1,15.46-.14,15.36,15.36,0,0,1,6.7,1.77H273a125.94,125.94,0,0,0-21.19,2.57,232,232,0,0,0-34,8.81c-1.58.55-3.14,1.17-4.7,1.75C212.6,33.17,212.49,32.93,212.56,32.51Z" transform="translate(-6.13 -9.89)" style="fill:#fff"/><path d="M229.38,22.27a26.87,26.87,0,0,1,.47-5.78c.15-1.36,1.35-1.63,2.46-1.89L243.91,12c1.16-.26,2.31-.53,3.46-.81a2.6,2.6,0,0,1,3.07,1.17c1,1.5,2.21,2.83,3.13,4.58C245.35,18.31,237.39,20.19,229.38,22.27Z" transform="translate(-6.13 -9.89)" style="fill:#fff"/><path d="M233.38,28.68a3.74,3.74,0,0,1,3.29,3.69,25.4,25.4,0,0,1-.11,6.34c-1.74,0-3.48.08-5.22,0-3.29-.12-4.94-1.84-5-5.11a13.14,13.14,0,0,1,0-1.66,3.41,3.41,0,0,1,3.26-3.21C230.87,28.66,232.13,28.7,233.38,28.68Z" transform="translate(-6.13 -9.89)" style="fill:#e97724"/><path d="M212.56,32.51l.53.51a5.22,5.22,0,0,1-1.81.94.41.41,0,0,1,0-.59C211.74,33.09,212,32.62,212.56,32.51Z" transform="translate(-6.13 -9.89)" style="fill:#dddfe3"/><path d="M211.32,33.37c0,.2,0,.39,0,.59-.18.28-.49.36-.57,0S211,33.48,211.32,33.37Z" transform="translate(-6.13 -9.89)" style="fill:#939da9"/><path d="M252.35,96.12a.52.52,0,0,1,.12-.33,46.82,46.82,0,0,0,0-8.78,37.7,37.7,0,0,0-3.9-13.31,10.06,10.06,0,0,1-.52-1.36c-.34-1.59-.9-3.19.14-4.75A2.64,2.64,0,0,1,250,67.1c5.5.21,11-.63,16.47-.45a3.51,3.51,0,0,1,2.38.56h8.5c.37.71-.12,1-.42,1.36q-10.32,12.08-20.67,24.14c-1,1.16-1.94,2.35-2.91,3.53a.94.94,0,0,0-.43.47l0,0C252.45,96.76,252.22,96.61,252.35,96.12Z" transform="translate(-6.13 -9.89)" style="fill:#433d53"/><path d="M268.8,67.21l-20.5.53a1.84,1.84,0,0,1-.68-1.67c.12-4-.67-7.9-.47-11.87a3,3,0,0,1,.71-2.32l3.52-.45c.84-.1,1.12.29,1,1.1-.17,1.24-.36,2.49-.42,3.73-.1,1.92.65,2.67,2.61,2.58,1.67-.07,3.33-.23,5-.4q8.93-.91,17.86-1.87c1.31,2.56,1,5.16.21,7.77-.17,2.54-.17,2.54-2.69,2.55-1.53,0-3.05,0-4.58,0C269.85,66.91,269.27,66.79,268.8,67.21Z" transform="translate(-6.13 -9.89)" style="fill:#ea7724"/><path d="M230.15,155.33l3.72,2.15a20.21,20.21,0,0,1-6.71,5.62,50.07,50.07,0,0,1-15.76,5.25A116.81,116.81,0,0,1,188.15,170c-2,0-3.87-.34-5.81-.53,0-.83-.05-1.67,0-2.5,0-1.43.23-1.7,1.55-1.5a60.24,60.24,0,0,0,11.47.28c8.56-.33,17-1.3,25.11-4.46A27.7,27.7,0,0,0,230.15,155.33Z" transform="translate(-6.13 -9.89)" style="fill:#2cae5c"/><path d="M252.35,96.12l.55.61a72.38,72.38,0,0,1-4.8,6.52c-.23.31-.58.74-1,.33s0-.78.22-1.1q1.63-2.16,3.3-4.29A9.07,9.07,0,0,1,252.35,96.12Z" transform="translate(-6.13 -9.89)" style="fill:#523f50"/><path d="M252.45,87a1.36,1.36,0,0,1,.38,1.15v6.48a1.36,1.36,0,0,1-.36,1.15C252.46,92.86,252.46,89.94,252.45,87Z" transform="translate(-6.13 -9.89)" style="fill:#523f50"/><path d="M206.27,117.19c-.53.31-.36.86-.46,1.33a8.41,8.41,0,0,1-.85-3.4c-.15-.43,0-.51.42-.4C205.56,115.58,206.21,116.28,206.27,117.19Z" transform="translate(-6.13 -9.89)" style="fill:#69414c"/><path d="M205.38,114.72l-.42.4c-.51-.5-.35-1.11-.34-1.93A3.52,3.52,0,0,1,205.38,114.72Z" transform="translate(-6.13 -9.89)" style="fill:#9c4943"/><path d="M252.87,96.71a.58.58,0,0,1,.43-.47A.61.61,0,0,1,252.87,96.71Z" transform="translate(-6.13 -9.89)" style="fill:#523f50"/><path d="M319.92,349.32l54.34-22c.69,1.92,1.27,3.63,1.91,5.31A55.41,55.41,0,0,0,383,345.77c3.52,4.85,8,8.32,14,9.69a52.14,52.14,0,0,0,7.67,1,21,21,0,0,1,4.73.86,6,6,0,0,1,3.67,3,3.14,3.14,0,0,1-1.53.94l-69.31,32.65c-.31.15-.62.31-.95.44-2.12.85-3.74.18-4.47-2q-1.56-4.65-3-9.37a188.68,188.68,0,0,0-12.73-31.36C320.7,350.93,320.37,350.24,319.92,349.32Z" transform="translate(-6.13 -9.89)" style="fill:#fff"/><path d="M373.89,325.87c0,.55-.5.62-.85.77-2.06.86-4.13,1.7-6.2,2.54l-45.18,18.3c-.39.15-.78.3-1.16.48a1.07,1.07,0,0,1-1.67-.58c-1.44-2.84-1.35-2.18,1-3.14q25.4-10.32,50.8-20.6c2.45-1,2.45-1,3.07,1.62C373.76,325.46,373.83,325.66,373.89,325.87Z" transform="translate(-6.13 -9.89)" style="fill:#fff"/><path d="M380.32,39.94c-.35,0-.7,0-1.05,0-1,.05-1.38-.36-1.34-1.36.14-3.74-.58-3.48,3.51-3.32,1,0,1.37.46,1.28,1.41,0,.35,0,.7,0,1C382.64,40,382.64,40,380.32,39.94Z" transform="translate(-6.13 -9.89)" style="fill:#f7d30c"/><path d="M349.45,42.93V41.67c0-.79.39-1.14,1.17-1.09a1.47,1.47,0,0,0,.21,0c3.38-.16,3.82.37,3.3,3.75-.12.81-.49,1.08-1.23,1-.42,0-.84,0-1.26-.06C349.47,45.19,349.38,45.65,349.45,42.93Z" transform="translate(-6.13 -9.89)" style="fill:#f4d40f"/><path d="M374.33,56.88c-2.39,0-2.27.2-2.24-2.23v-.41c.05-2,.05-2,2.1-2,3,0,2.66-.35,2.64,2.65,0,.2,0,.41,0,.62.12,1.1-.39,1.51-1.46,1.38A9,9,0,0,0,374.33,56.88Z" transform="translate(-6.13 -9.89)" style="fill:#f6d60b"/><path d="M385.55,58.07c.71,0,1,0,1.26,0,1.15-.14,1.41.45,1.38,1.48-.11,3.8.26,3.11-3.1,3.14-1.67,0-1.67,0-1.68-1.78,0-.14,0-.28,0-.42C383.45,57.61,383.47,58.09,385.55,58.07Z" transform="translate(-6.13 -9.89)" style="fill:#f6d50b"/><path d="M363,51.06c-2.29,0-2.29,0-2.26-2.25,0-.28,0-.56,0-.84.08-1.54.08-1.59,1.71-1.56,3.23.05,3.08-.5,3,2.77C365.46,51.09,365.42,51.09,363,51.06Z" transform="translate(-6.13 -9.89)" style="fill:#f5d50d"/><path d="M366.63,31.85c0-.35,0-.7,0-1-.08-1,.31-1.45,1.32-1.34.21,0,.42,0,.62,0,2.89.1,2.94-.68,2.75,3-.08,1.68-.12,1.68-1.81,1.7h-.63C366.6,34.11,366.6,34.11,366.63,31.85Z" transform="translate(-6.13 -9.89)" style="fill:#f8d40a"/><path d="M383.76,26.11c0-2.3,0-2.3,2.31-2.19l.62,0c1.72.11,1.76.11,1.73,1.74-.07,3.36.45,2.92-3,2.9-1.59,0-1.59-.06-1.62-1.66C383.75,26.67,383.76,26.39,383.76,26.11Z" transform="translate(-6.13 -9.89)" style="fill:#f9d506"/><path d="M383.36,66c0-2.33,0-2.33,2.29-2.22.21,0,.42.05.63.05,2.11,0,1.77.45,1.74,1.94,0,3,.31,2.74-2.61,2.71C383.33,68.42,383.33,68.4,383.36,66Z" transform="translate(-6.13 -9.89)" style="fill:#f9d506"/><path d="M366.43,60.18c0-2.32-.38-2.43,2.37-2.28,2.44.13,2.28-.23,2.27,2.48,0,.21,0,.42,0,.63-.05,1.56-.05,1.56-1.67,1.58h-.63C366.14,62.56,366.43,62.68,366.43,60.18Z" transform="translate(-6.13 -9.89)" style="fill:#fad704"/><path d="M365.3,60.36c0,.35,0,.7,0,1,.06.79-.27,1.19-1.08,1.12H364c-3.37,0-3.73-.38-3.35-3.76.08-.7.35-1,1-1,.34,0,.69,0,1,0C365.67,57.82,365.29,57.57,365.3,60.36Z" transform="translate(-6.13 -9.89)" style="fill:#f9d804"/><path d="M348.36,54.34c0,.41,0,.83,0,1.24,0,.81-.4,1.05-1.16,1.1-3.23.22-3.94-.57-3.48-3.82.1-.7.4-1,1.07-1,.42,0,.83,0,1.25,0C348.83,51.92,348.36,52.08,348.36,54.34Z" transform="translate(-6.13 -9.89)" style="fill:#f8d707"/><path d="M359.89,31.8v.41c0,1.83,0,1.83-1.85,1.77-2.89-.11-2.89-.11-2.79-3,.05-1.67.05-1.67,1.8-1.69h.42C360.16,29.33,359.91,29.14,359.89,31.8Z" transform="translate(-6.13 -9.89)" style="fill:#f8d806"/><path d="M374.31,46.58c2.74.14,2.62-.49,2.58,2.79,0,1.9,0,1.9-2,1.9H374c-1.8-.06-1.8-.06-1.81-1.89,0-.28,0-.56,0-.84C372.28,46.49,372.28,46.49,374.31,46.58Z" transform="translate(-6.13 -9.89)" style="fill:#f9d506"/><path d="M357.51,40.74c2.48.06,2.31-.28,2.3,2.42,0,2.41.18,2.26-2.26,2.24-.34,0-.69,0-1,0-.94.07-1.47-.27-1.35-1.3a9,9,0,0,0,0-1C355.18,40.38,355.07,40.65,357.51,40.74Z" transform="translate(-6.13 -9.89)" style="fill:#fad704"/><path d="M371.14,48.87c0,2.77-.05,2.3-2.41,2.25s-2.25.22-2.23-2.28c0-.35,0-.7,0-1.05-.08-.94.24-1.47,1.29-1.34.34,0,.69,0,1,0C371.39,46.5,371.14,46.31,371.14,48.87Z" transform="translate(-6.13 -9.89)" style="fill:#f9d804"/><path d="M363.34,29.43c2.59,0,2.31-.13,2.3,2.41,0,2.28.29,2.29-2.25,2.24a9.2,9.2,0,0,0-1.05,0c-.94.07-1.46-.26-1.35-1.29a9,9,0,0,0,0-1C361,29,360.92,29.42,363.34,29.43Z" transform="translate(-6.13 -9.89)" style="fill:#fad704"/><path d="M377,37.62v.63c-.05,1.56-.05,1.6-1.65,1.55-3.46-.11-3,.59-3-3.18,0-1.45,0-1.45,1.54-1.49h.63C377.21,35.19,377,34.9,377,37.62Z" transform="translate(-6.13 -9.89)" style="fill:#f9d804"/><path d="M346.08,39.59c-2.41,0-2.25.15-2.24-2.26,0-.21,0-.42,0-.63,0-1.74,0-1.78,1.68-1.75,3.46,0,2.93-.44,2.94,3,0,1.65,0,1.65-1.77,1.67Z" transform="translate(-6.13 -9.89)" style="fill:#fbd702"/><path d="M382.34,71.75c0,.35,0,.7,0,1a1.15,1.15,0,0,1-.07.62c-.8,1.2-2,.5-3,.57-.65,0-1.54.12-1.52-.93s-.52-2.66.33-3.39,2.4-.22,3.63-.23c.53,0,.68.4.68.86v1.46Z" transform="translate(-6.13 -9.89)" style="fill:#fad704"/><path d="M377.86,48.87c0-.14,0-.28,0-.41,0-1.78,0-1.81,1.86-1.79,3.2,0,2.75-.36,2.76,2.75,0,1.89,0,1.89-1.95,1.9h-.21C377.61,51.27,377.86,51.55,377.86,48.87Z" transform="translate(-6.13 -9.89)" style="fill:#fbd702"/><path d="M357.32,57.74c.34,0,.69,0,1,0,.93-.07,1.4.23,1.36,1.28-.14,3.93.54,3.31-3.45,3.37-1.06,0-1.32-.47-1.24-1.39,0-.34,0-.69,0-1C355.08,57.48,355,57.72,357.32,57.74Z" transform="translate(-6.13 -9.89)" style="fill:#f9d804"/><path d="M380,68.3c-2.45-.06-2.23.17-2.23-2.27,0-.28,0-.56,0-.83.05-1.54.05-1.57,1.68-1.56,3.37,0,2.95-.13,2.95,2.42C382.4,68.8,382.45,68.29,380,68.3Z" transform="translate(-6.13 -9.89)" style="fill:#f9d804"/><path d="M369.13,23.75c.42,0,.83,0,1.25,0,.82,0,1,.39,1.07,1.15.23,3.39-.3,3.89-3.74,3.48-.71-.08-1-.36-.95-1,0-.42,0-.84,0-1.25C366.82,23.45,366.6,23.76,369.13,23.75Z" transform="translate(-6.13 -9.89)" style="fill:#fad902"/><path d="M374.85,28.41c-2.79,0-2.43.2-2.45-2.45,0-.2,0-.41,0-.62,0-1.54,0-1.58,1.66-1.56,3.38,0,3-.34,3,2.56C377,28.53,377.24,28.44,374.85,28.41Z" transform="translate(-6.13 -9.89)" style="fill:#fad902"/><path d="M376.62,65.9c0,.42,0,.84,0,1.25,0,.78-.3,1.06-1.09,1.11-3.41.23-3.93-.28-3.53-3.68,0-.2,0-.52.1-.6,1.19-.83,2.53-.27,3.8-.33.8,0,.72.67.73,1.21,0,.35,0,.7,0,1Z" transform="translate(-6.13 -9.89)" style="fill:#fad902"/><path d="M368.59,68.2c-2.44,0-2.22.18-2.21-2.27V65.3c.05-1.72.05-1.76,1.7-1.74,3.4,0,2.94-.49,2.93,3,0,1.61,0,1.61-1.59,1.64Z" transform="translate(-6.13 -9.89)" style="fill:#fad902"/><path d="M380.27,58c.28,0,.56,0,.83,0,.95-.09,1.39.23,1.35,1.27-.13,4,.57,3.28-3.43,3.36-.87,0-1.32-.26-1.24-1.18,0-.35,0-.7,0-1C377.84,57.81,377.47,58,380.27,58Z" transform="translate(-6.13 -9.89)" style="fill:#fad704"/><path d="M374.44,58c2.43,0,2.26-.19,2.25,2.23v.62c-.05,1.78-.05,1.81-1.88,1.79-3.1,0-2.78.31-2.77-2.54C372,57.79,372,58,374.44,58Z" transform="translate(-6.13 -9.89)" style="fill:#f9d607"/><path d="M351.55,62.33c-2.49,0-2.24.2-2.25-2.24,0-.28,0-.55,0-.83.05-1.54.05-1.58,1.66-1.56,3.4,0,3-.38,3,2.55C353.94,62.62,354.08,62.32,351.55,62.33Z" transform="translate(-6.13 -9.89)" style="fill:#fbd900"/><path d="M382.46,54.74c0,.34,0,.69,0,1,.08.94-.42,1.18-1.25,1.15-4-.13-3.29.57-3.39-3.4,0-1,.42-1.37,1.37-1.26.27,0,.55,0,.83,0C382.66,52.33,382.47,52,382.46,54.74Z" transform="translate(-6.13 -9.89)" style="fill:#fad902"/><path d="M366.46,54.68c0-2.64-.24-2.49,2.25-2.48.42,0,.84,0,1.25,0,1-.08,1.18.41,1.16,1.25-.09,4.07.43,3.33-3,3.37-1.65,0-1.65,0-1.67-1.77Z" transform="translate(-6.13 -9.89)" style="fill:#f9d606"/><path d="M363,56.81c-2.37,0-2.29.23-2.26-2.23V54c0-1.79.05-1.82,1.87-1.79,3.15,0,2.78-.39,2.77,2.74C365.34,56.82,365.32,56.82,363,56.81Z" transform="translate(-6.13 -9.89)" style="fill:#fad704"/><path d="M374.57,29.52c2.64.05,2.44-.21,2.44,2.27,0,.21,0,.41,0,.62,0,1.74,0,1.78-1.68,1.75-3.42,0-2.93.46-2.94-3,0-1.62,0-1.62,1.58-1.66Z" transform="translate(-6.13 -9.89)" style="fill:#fad704"/><path d="M378.12,31.85c0-.35,0-.7,0-1-.05-.83.23-1.22,1.17-1.27,3.4-.19,3.92.35,3.47,3.73-.09.71-.4,1-1.06.94-.41,0-.83,0-1.25,0C377.94,34.17,378.08,34.45,378.12,31.85Z" transform="translate(-6.13 -9.89)" style="fill:#fad704"/><path d="M386.16,29.6h.41c1.79,0,1.83,0,1.79,1.85-.06,3.23.49,2.77-2.93,2.77-1.68,0-1.68,0-1.7-1.72v-.42C383.78,29.31,383.45,29.62,386.16,29.6Z" transform="translate(-6.13 -9.89)" style="fill:#fbd900"/><path d="M357.42,52.14c.42,0,.83,0,1.25,0,.8,0,1,.35,1.09,1.13.25,3.41-.3,3.94-3.7,3.51-.7-.09-1-.38-1-1,0-.42,0-.84,0-1.25C355.15,52,354.8,52.11,357.42,52.14Z" transform="translate(-6.13 -9.89)" style="fill:#fad704"/><path d="M351.74,52.07c2.47,0,2.24-.14,2.24,2.24v.63c0,1.78,0,1.8-1.88,1.78-3.1,0-2.76.14-2.76-2.4C349.35,51.6,349.24,52.06,351.74,52.07Z" transform="translate(-6.13 -9.89)" style="fill:#fbd702"/><path d="M351.87,39.61c-.35,0-.69,0-1,0-.84.06-1.22-.24-1.28-1.16-.22-3.35.37-3.9,3.75-3.47.71.08,1,.38.94,1,0,.41,0,.83,0,1.25C354.2,39.86,354.39,39.63,351.87,39.61Z" transform="translate(-6.13 -9.89)" style="fill:#fad704"/><path d="M359.84,37.51c0,.35,0,.7,0,1,.05.78-.26,1.07-1.07,1.13-3.44.24-3.9-.22-3.56-3.66.17-1.71,1.47-1,2.23-.93s2.26-.86,2.4,1c0,.48,0,1,0,1.45Z" transform="translate(-6.13 -9.89)" style="fill:#fbd901"/><path d="M362.83,39.68a1.7,1.7,0,0,0-.54,0c-.94.09-1.39-.22-1.35-1.27.17-4-.6-3.28,3.44-3.37.85,0,1.32.24,1.24,1.18,0,.41,0,.83,0,1.25C365.58,39.8,365.87,39.71,362.83,39.68Z" transform="translate(-6.13 -9.89)" style="fill:#fbd900"/><path d="M369,39.74c-2.76-.05-2.45.2-2.45-2.46,0-.2,0-.41,0-.62.05-1.55.05-1.58,1.67-1.57,3.34,0,3-.33,3,2.57C371.21,39.92,371.34,39.75,369,39.74Z" transform="translate(-6.13 -9.89)" style="fill:#f9d904"/><path d="M388.33,37.71c0,.35,0,.69,0,1,.06.84-.22,1.29-1.16,1.26-4.1-.13-3.41.6-3.48-3.53,0-.94.44-1.21,1.27-1.14.35,0,.7,0,1,0C388.59,35.39,388.33,35.16,388.33,37.71Z" transform="translate(-6.13 -9.89)" style="fill:#fbd702"/><path d="M342.7,42.88c-.05,2.52.24,2.27-2.42,2.26s-2.23.1-2.23-2.24c0-.35,0-.7,0-1-.07-.93.23-1.47,1.28-1.36a9,9,0,0,0,1,0C342.89,40.55,342.72,40.24,342.7,42.88Z" transform="translate(-6.13 -9.89)" style="fill:#fad902"/><path d="M348.45,42.77c0,2.45.3,2.47-2.26,2.42-.21,0-.42,0-.63,0-1.73,0-1.77,0-1.75-1.68.06-3.44-.46-2.94,3-2.95,1.64,0,1.64,0,1.66,1.79Z" transform="translate(-6.13 -9.89)" style="fill:#fad902"/><path d="M369,40.85h.63c1.53,0,1.58,0,1.55,1.66-.05,3.48.46,3-3,3-1.66,0-1.66,0-1.68-1.76v-.42C366.58,40.64,366.23,40.84,369,40.85Z" transform="translate(-6.13 -9.89)" style="fill:#fad704"/><path d="M376.93,43.25c0,2.46.23,2.29-2.21,2.27-2.67,0-2.43.31-2.42-2.47a7.66,7.66,0,0,0,0-.83c-.09-.94.22-1.48,1.27-1.35a9,9,0,0,0,1,0C377.16,40.92,376.94,40.66,376.93,43.25Z" transform="translate(-6.13 -9.89)" style="fill:#fbd901"/><path d="M382.54,43.38c0,.35,0,.7,0,1,.09.95-.41,1.18-1.25,1.15-4-.13-3.31.59-3.39-3.4,0-1.05.44-1.35,1.38-1.26.27,0,.55,0,.83,0C382.73,41,382.57,40.57,382.54,43.38Z" transform="translate(-6.13 -9.89)" style="fill:#fad902"/><path d="M383.66,43.23c0-2.59-.14-2.28,2.41-2.27,2.37,0,2.24-.21,2.23,2.27,0,.35,0,.69,0,1,.08.94-.25,1.45-1.28,1.34-.35,0-.7,0-1,0C383.36,45.57,383.67,45.78,383.66,43.23Z" transform="translate(-6.13 -9.89)" style="fill:#fad902"/><path d="M343.78,48.49c0-.21,0-.42,0-.63.05-1.53.05-1.57,1.66-1.55,3.46,0,2.95-.44,3,3,0,1.66,0,1.66-1.76,1.68h-.42C343.57,50.89,343.76,51.26,343.78,48.49Z" transform="translate(-6.13 -9.89)" style="fill:#fad704"/><path d="M351.53,46.34c2.61,0,2.53-.26,2.5,2.25,0,.42,0,.84,0,1.25.08.95-.41,1.17-1.26,1.15-4.05-.09-3.34.42-3.37-3,0-1.65,0-1.66,1.79-1.67Z" transform="translate(-6.13 -9.89)" style="fill:#fad902"/><path d="M359.78,48.73c0,2.54.24,2.29-2.42,2.27-2.46,0-2.22.26-2.22-2.24,0-.41,0-.83,0-1.25-.08-.94.41-1.22,1.26-1.14.34,0,.69,0,1,0C360,46.4,359.78,46.15,359.78,48.73Z" transform="translate(-6.13 -9.89)" style="fill:#fbd900"/><path d="M383.62,49c0-2.48-.2-2.24,2.23-2.25h.62c1.79,0,1.81,0,1.79,1.86,0,3.11.34,2.77-2.54,2.77C383.4,51.35,383.61,51.5,383.62,49Z" transform="translate(-6.13 -9.89)" style="fill:#fad704"/><path d="M382.79,26.24c0,.42,0,.83,0,1.25,0,.69-.32,1-1,1h-.21c-4.13-.1-3.33.5-3.42-3.34,0-.95.26-1.46,1.3-1.33a8.85,8.85,0,0,0,1,0C383.15,23.84,382.8,23.87,382.79,26.24Z" transform="translate(-6.13 -9.89)" style="fill:#f9d804"/><path d="M363.31,40.81h1c.2,0,.46,0,.61.06,1.28.85.37,2.13.57,3.2.11.59.09,1.31-.82,1.37-.35,0-.69,0-1,0-3.09-.06-2.78.34-2.75-2.77C360.93,40.78,361,40.78,363.31,40.81Z" transform="translate(-6.13 -9.89)" style="fill:#fad704"/><path d="M386,57c-.35,0-.7,0-1.05,0-1,.08-1.33-.28-1.37-1.3-.11-3.35.21-3.66,3.55-3.34.91.09,1.23.48,1.16,1.33,0,.35,0,.7,0,1.05C388.2,57,388.2,57,386,57Z" transform="translate(-6.13 -9.89)" style="fill:#f8d707"/><path d="M363.05,63.52h.42c1.8,0,1.84,0,1.8,1.86-.07,3.15.57,2.78-3,2.77-1.56,0-1.63-.13-1.67-1.7,0-.21,0-.42,0-.63C360.66,63.23,360.44,63.53,363.05,63.52Z" transform="translate(-6.13 -9.89)" style="fill:#f9d804"/><path d="M393.76,43.61c0,.35,0,.69,0,1,0,.67-.26,1.05-1,1-1.09-.06-2.49.46-3.19-.3s-.25-2.37-.26-3.59a.72.72,0,0,1,.81-.76c.76,0,1.52,0,2.28,0,1,0,1.39.4,1.32,1.37,0,.41,0,.83,0,1.24Z" transform="translate(-6.13 -9.89)" style="fill:#f6d60b"/><path d="M389.23,49c0-2.44-.12-2.24,2.3-2.23s2.3,0,2.15,2.31c0,.21,0,.42-.05.62-.2,1.69-.21,1.69-1.88,1.71h-.21C389,51.36,389.22,51.59,389.23,49Z" transform="translate(-6.13 -9.89)" style="fill:#f8d707"/><path d="M340.42,46.26c2.42.05,2.26-.26,2.22,2.27,0,.73.38,1.73-.3,2.16-.89.56-2,.18-3.06.16a.73.73,0,0,1-.59-.52c-.16-.39-.32-.77-.44-1.17C337.52,46.7,337.87,46.24,340.42,46.26Z" transform="translate(-6.13 -9.89)" style="fill:#fbd802"/><path d="M348.32,60c0,2.63,0,2.63-2.56,1.71-.39-.14-.79-.26-1.17-.43a2.75,2.75,0,0,1-.79-3.38.86.86,0,0,1,.74-.27c.49,0,1,0,1.46,0C348.48,57.68,348.34,57.38,348.32,60Z" transform="translate(-6.13 -9.89)" style="fill:#f5d50d"/><path d="M340.5,39.55c-.21,0-.42,0-.62,0-.7-.09-1.61.3-1.79-.88-.21-1.35.05-2,1.21-2.47.89-.39,1.79-.76,2.7-1.1.49-.19.82,0,.85.54s0,1.11,0,1.67C342.79,39.56,342.79,39.56,340.5,39.55Z" transform="translate(-6.13 -9.89)" style="fill:#f3d111"/><path d="M391.29,52.39l1.24.09c.65,0,.82.42.74,1-.11.76-.29,1.51-.33,2.26-.05,1-.5,1.43-1.56,1.43-2.12,0-2.2,0-2.2-2.15v-.63C389.21,52.33,389.25,52.3,391.29,52.39Z" transform="translate(-6.13 -9.89)" style="fill:#f3d211"/><path d="M389.44,37.43c.07-2.1-.56-2.07,2.68-2,.75,0,1.18.27,1.2,1.07,0,.41.1.83.06,1.24-.07.73.63,1.75-.08,2.12-1,.54-2.29.24-3.45.1-.27,0-.4-.37-.41-.66C389.43,38.71,389.44,38.16,389.44,37.43Z" transform="translate(-6.13 -9.89)" style="fill:#fbd901"/><path d="M380.43,22.85h-.2c-1.91,0-2.62-1.05-2-2.86a.89.89,0,0,1,.75-.6c.54-.11,1.08-.23,1.62-.29,2.29-.25,2.29-.24,2.23,2.1,0,1.62,0,1.62-1.58,1.65Z" transform="translate(-6.13 -9.89)" style="fill:#f8d608"/><path d="M376.38,73.65c-1.24-.33-2.31-.57-3.37-.9s-1.49-2.35-.89-3.12c.18-.24.46-.25.74-.29,3.43-.49,3.92,0,3.72,3.47A6,6,0,0,1,376.38,73.65Z" transform="translate(-6.13 -9.89)" style="fill:#f8d707"/><path d="M386.36,22.89c-2.68,0-2.59.32-2.54-2.49,0-1.61.34-1.81,1.88-1.31a4.7,4.7,0,0,1,2.48,1.82c.74,1.09.24,1.94-1.1,2Z" transform="translate(-6.13 -9.89)" style="fill:#f5d40d"/><path d="M354.12,29.73a5.26,5.26,0,0,1,.16.77c-.08,4,.59,3.35-3.38,3.36-.5,0-1.19.17-1.25-.68,0-.68-.14-1.4.68-1.77Z" transform="translate(-6.13 -9.89)" style="fill:#f8d806"/><path d="M365.67,24.16c0,1.27,0,2.16,0,3.05s-.4,1.19-1.25,1.15-1.52,0-2.28,0c-.46,0-1,.09-1.09-.62s-.18-1.27.56-1.62C362.86,25.51,364.09,24.92,365.67,24.16Z" transform="translate(-6.13 -9.89)" style="fill:#f9d804"/><path d="M359.5,67.34c-1.4-.6-2.58-1.14-3.78-1.62a1.22,1.22,0,0,1-.77-1.5c.09-.79.68-.76,1.24-.75C360,63.6,359.81,62.77,359.5,67.34Z" transform="translate(-6.13 -9.89)" style="fill:#f4d30f"/><path d="M389.5,31.89c0-.28,0-.56,0-.83,0-.66-.18-1.41.95-1.44,1.37,0,1.65.05,1.95,1.25.18.73.27,1.49.44,2.23.22.95-.21,1.25-1.09,1.18a5.91,5.91,0,0,0-1,0c-1.05.12-1.34-.42-1.24-1.35,0-.34,0-.69,0-1Z" transform="translate(-6.13 -9.89)" style="fill:#fad902"/><path d="M392.46,58.28c-.31,1.3-.6,2.44-.87,3.58-.22.94-.91.88-1.63.87s-.82-.58-.82-1.15c0-.21,0-.42,0-.63C389.12,57.88,389.12,57.88,392.46,58.28Z" transform="translate(-6.13 -9.89)" style="fill:#f5d50d"/><path d="M388,69.62a9,9,0,0,1-4.41,3.83c-.14-.18-.21-.23-.21-.28C383.35,68.91,382.44,69.2,388,69.62Z" transform="translate(-6.13 -9.89)" style="fill:#f4d50d"/><path d="M339.28,52c3.93-.35,3.33-.55,3.32,3.67,0,.36-.09.7-.52.78a1.31,1.31,0,0,1-1.18-.2,1.38,1.38,0,0,1-.34-.52C340.13,54.53,339.71,53.3,339.28,52Z" transform="translate(-6.13 -9.89)" style="fill:#f5d60b"/><path d="M376.77,20a1.26,1.26,0,0,1,.32,1c0,1.79,0,1.82-1.82,1.83-.62,0-1.24,0-1.87,0-.42,0-.85,0-.94-.57a.92.92,0,0,1,.61-1.15A17.39,17.39,0,0,1,376.77,20Z" transform="translate(-6.13 -9.89)" style="fill:#f5d110"/><path d="M368.7,69.31c.41,0,.83,0,1.24,0s.89,0,1,.54a2.87,2.87,0,0,1-.1,1.83c-.13.27-.47.23-.74.12-1-.4-2.07-.79-3.1-1.21-.39-.16-.77-.4-.61-.92s.52-.37.86-.38,1,0,1.46,0Z" transform="translate(-6.13 -9.89)" style="fill:#f4d011"/><path d="M389.92,24a9.76,9.76,0,0,1,1.72,4.5c-2.11.28-2.12.28-2.13-1.58,0-.77,0-1.53.05-2.29C389.57,24.48,389.68,24.38,389.92,24Z" transform="translate(-6.13 -9.89)" style="fill:#f4d011"/><path d="M337,37.29c0,.34.1.67.1,1s.12,1-.52,1.17a2.05,2.05,0,0,1-1.77-.21.81.81,0,0,1,.19-1.43A3.64,3.64,0,0,1,337,37.29Z" transform="translate(-6.13 -9.89)" style="fill:#e3c421"/><path d="M337.11,44.64a8,8,0,0,1-1.71-3.92c1.65-.22,1.66-.22,1.7,1.08C337.13,42.74,337.11,43.69,337.11,44.64Z" transform="translate(-6.13 -9.89)" style="fill:#efd115"/><path d="M389.14,67.53c0-1.35,0-2.22,0-3.08,0-.7.6-.65,1.09-.58s.52.52.34.93A8.81,8.81,0,0,1,389.14,67.53Z" transform="translate(-6.13 -9.89)" style="fill:#f1cd15"/><path d="M357.53,28.2a4.8,4.8,0,0,1,1.78-1.08.48.48,0,0,1,.69.26c.13.36.08.76-.29.88A3.71,3.71,0,0,1,357.53,28.2Z" transform="translate(-6.13 -9.89)" style="fill:#ccb62d"/><path d="M345.61,33.84a5.09,5.09,0,0,1,2-1.19c.4-.19.8-.21.86.41a.63.63,0,0,1-.68.78Z" transform="translate(-6.13 -9.89)" style="fill:#e9d319"/><path d="M342.47,60.34c-.77-.6-.75-1.35-1-2-.15-.36-.07-.68.4-.73s.7.09.74.51A5.3,5.3,0,0,1,342.47,60.34Z" transform="translate(-6.13 -9.89)" style="fill:#d9bc27"/><path d="M351,63.68a4.77,4.77,0,0,1,2.48-.18c.42,0,.5.39.46.76s-.34.54-.7.39C352.53,64.38,351.89,64.08,351,63.68Z" transform="translate(-6.13 -9.89)" style="fill:#e8c41e"/><path d="M369.7,22.73a1.29,1.29,0,0,1,1.62-.69c.05,0,.09.28,0,.36C371,23,370.39,22.76,369.7,22.73Z" transform="translate(-6.13 -9.89)" style="fill:#e5d81b"/><path d="M364.83,69.73c-.2-.06-.34-.19-.27-.4s.2-.15.3-.14a.32.32,0,0,1,.28.4C365.13,69.65,364.94,69.68,364.83,69.73Z" transform="translate(-6.13 -9.89)" style="fill:#b8802e"/><path d="M334.57,36.71l.5.08a2.48,2.48,0,0,1-.49.3c-.17.06-.45,0-.46-.15S334.37,36.71,334.57,36.71Z" transform="translate(-6.13 -9.89)" style="fill:#796b7c"/><path d="M286.92,50.16c-.23-.55-.1-1,.52-1.08,1.16-.18,2.32-.32,3.49-.39.57,0,.53.52.61.91-.36.56-.92.55-1.48.55Z" transform="translate(-6.13 -9.89)" style="fill:#e6c51f"/><path d="M255,49.71c.61-1.75.24-3.63.66-5.4,1.52-.16,3-.38,4.57-.45,2.13-.09,2.68.44,2.66,2.48a24.6,24.6,0,0,1-1.66,8.77,3.16,3.16,0,0,1-3.07,2.37c-1.32,0-2.64.17-4,.22-.81,0-1.37-.3-1.28-1.23.13-1.25.27-2.49.44-3.73a2.25,2.25,0,0,1,.61-1.31A1.31,1.31,0,0,1,255.5,51c.47.21.27.73.29,1.12s-.25,1.11.18,1.6c.78-.72,1.44-3,1-3.65S255.67,49.86,255,49.71Z" transform="translate(-6.13 -9.89)" style="fill:#e97724"/><path d="M261.64,57.12c1.7-4.5,2.89-8.82,2-13.57a18.68,18.68,0,0,1,5.38-.61c1.53,0,1.95.5,1.95,2.08a22.38,22.38,0,0,1-2,9.31,3.75,3.75,0,0,1-3.72,2.51C264.09,56.83,263,57,261.64,57.12Z" transform="translate(-6.13 -9.89)" style="fill:#ea7724"/><path d="M269.22,56.31c1.85-4.42,3.5-8.75,2.49-13.67a7.23,7.23,0,0,1,3.73-.46,1.7,1.7,0,0,1,1.75,1.73,18.62,18.62,0,0,1-2,9.92C273.93,56.35,271.68,56.34,269.22,56.31Z" transform="translate(-6.13 -9.89)" style="fill:#e97724"/><path d="M275.63,55.46c2.07-4.28,3.52-8.65,2.2-13.58a9,9,0,0,1,3.35-.5c1.45.11,2,.67,1.92,2.15a32.27,32.27,0,0,1-1.28,7.81C280.76,55,279.68,55.69,275.63,55.46Z" transform="translate(-6.13 -9.89)" style="fill:#e97724"/><path d="M248.27,48.93a20.43,20.43,0,0,1,5.1,1.18,21.41,21.41,0,0,1-5.47.5C247.36,49.9,247.73,49.4,248.27,48.93Z" transform="translate(-6.13 -9.89)" style="fill:#e27826"/><path d="M248.27,48.93c-.13.56-.25,1.12-.37,1.68a4,4,0,0,1-2.39.18,4.75,4.75,0,0,1,.69-1.93c.11-.19.27-.35.27-.58a.25.25,0,0,1-.13-.22C247,48.33,247.77,48.3,248.27,48.93Z" transform="translate(-6.13 -9.89)" style="fill:#f0e9e7"/><path d="M283.25,49.94c.6-.8,1.38-.63,2.11-.57.13,0,.32.29.33.44a.61.61,0,0,1-.3.48A2.18,2.18,0,0,1,283.25,49.94Z" transform="translate(-6.13 -9.89)" style="fill:#d6cc27"/><path d="M246.47,48.28a.61.61,0,0,1-.27.58A.58.58,0,0,1,246.47,48.28Z" transform="translate(-6.13 -9.89)" style="fill:#dbe5e5"/><path d="M252.72,28.14a.53.53,0,0,1-.51.56,7.57,7.57,0,0,0-4.72,2,.53.53,0,0,1-.75,0c-.34-.33-.1-.64.14-.89a7.56,7.56,0,0,1,5-2.25A.73.73,0,0,1,252.72,28.14Z" transform="translate(-6.13 -9.89)" style="fill:#54434b"/><path d="M250.43,30.52a1.35,1.35,0,0,1,1,1.44c0,.62-.15,1.38-.94,1.38s-1-.71-.95-1.37A1.35,1.35,0,0,1,250.43,30.52Z" transform="translate(-6.13 -9.89)" style="fill:#5d4547"/><path d="M160.61,341.26a12.07,12.07,0,0,1-2.55,1.38,62.39,62.39,0,0,0-13.29,8.67c-4,3.54-7.08,7.68-8.35,13a31.36,31.36,0,0,0-.62,7.91c0,2.23.22,4.46,0,6.7a7,7,0,0,1-2.42,5.09c-.69,0-.79-.6-1-1q-21.07-32.49-42.13-65c-1.69-2.61-1.24-4.19,1.53-5.51,5.41-2.59,10.87-5.08,16.23-7.76a186,186,0,0,0,22-13.3c1.63-1.12,1.65-1.12,2.57.5q13.69,23.88,27.35,47.77A2.67,2.67,0,0,1,160.61,341.26Z" transform="translate(-6.13 -9.89)" style="fill:#fff"/><path d="M202.38,201.84H213.9c1.95,0,1.95,0,2.57,1.95a82.77,82.77,0,0,1,3.94,18.1c.43,4.84.57,9.75-1.49,14.39a10.86,10.86,0,0,1-5.76,5.76,1.6,1.6,0,0,1-2.17-.47c-2.63-3.06-5.14-6.22-7.47-9.52a109.94,109.94,0,0,1-14.29-27.78c-.83-2.42-.82-2.42,1.64-2.43Z" transform="translate(-6.13 -9.89)" style="fill:#2cae5c"/><path d="M165.07,339.16a3,3,0,0,1-.39.33c-2.76,1.52-2.76,1.52-4.32-1.21L133.75,291.8c-1.28-2.23-1.2-2.45,1.12-3.77.57-.33.88-.24,1.16.3.12.25.27.48.41.73l28.28,49.39C164.82,338.63,164.91,338.82,165.07,339.16Z" transform="translate(-6.13 -9.89)" style="fill:#fff"/><path d="M87.92,87.79l-.36-.43c.51-.54,1.11-.32,1.88-.33A3.07,3.07,0,0,1,87.92,87.79Z" transform="translate(-6.13 -9.89)" style="fill:#666c7c"/><path d="M134.08,75.2a1.08,1.08,0,0,1,.06-.4.56.56,0,0,1,1-.16A1.7,1.7,0,0,1,134.08,75.2Z" transform="translate(-6.13 -9.89)" style="fill:#878996"/><path d="M145,55.16a2,2,0,0,1,1,.62c-.42.37-.72.16-1-.17Q144.69,55.39,145,55.16Z" transform="translate(-6.13 -9.89)" style="fill:#787886"/><path d="M145,55.16v.45c-.32,0-.66,0-.84-.35v-.51Z" transform="translate(-6.13 -9.89)" style="fill:#a9acb6"/><path d="M245.75,345.25c-.1-.44.06-.95-.41-1.28a9.21,9.21,0,0,1,1.22-2.93C246.25,342.69,246.35,344,245.75,345.25Z" transform="translate(-6.13 -9.89)" style="fill:#a79031"/><path d="M217.17,358.19c-.36.17-.39.5-.42.83l-1.23-2.5C216.45,356.81,216.75,357.55,217.17,358.19Z" transform="translate(-6.13 -9.89)" style="fill:#bba130"/><path d="M252.89,371.22l-.55-.54a3.76,3.76,0,0,1,1.73-1.43A3.13,3.13,0,0,1,252.89,371.22Z" transform="translate(-6.13 -9.89)" style="fill:#b09531"/><path d="M235.21,34.18c0,.28-.05.56-.35.69a.47.47,0,0,1-.65-.35c-.46-2-1.85-2.8-3.76-3A.49.49,0,0,1,230,31a.59.59,0,0,1,.6-.48C232.8,30.39,235.09,32.22,235.21,34.18Z" transform="translate(-6.13 -9.89)" style="fill:#5a4548"/></svg>