<svg id="Layer_1" data-name="Layer 1" xmlns="http://www.w3.org/2000/svg" viewBox="0 0 415.16 296.33"><path d="M365.73,259.78a2.88,2.88,0,0,0-1.69-.16,6.27,6.27,0,0,1-2.71.48h-43a3.69,3.69,0,0,1-2.07-.31,1.36,1.36,0,0,0-1.43,0,9.05,9.05,0,0,1-2.59.26c-6.21,0-12.41,0-18.62,0,5.05,0,10.1,0,15.14,0a5.32,5.32,0,0,1,2.1.2c.91.78.05,1.38-.27,1.95-4.43,8-4.53,16.32-2,24.86a8.22,8.22,0,0,0,3,4.39c.25.19.55.37.48.78-2.4,0-4.8.05-7.2.05-6.39,0-12.78.1-19.16,0-9.45-.18-17.13-4-22.71-11.68a27.91,27.91,0,0,1,8.82-40.68c6.28-3.54,12.87-6.47,19.36-9.58l3.4-1.63a1.75,1.75,0,0,1,1.07-.94c8.28-3.74,16.48-7.66,25.18-10.38a26.13,26.13,0,0,1,3.15-.85,208.92,208.92,0,0,1,21.08-.72c9.53.29,19.07.51,28.59,1.32a2.62,2.62,0,0,1,2.58,2.26A94.22,94.22,0,0,1,379,234.8a40.8,40.8,0,0,1-1.75,17.08,16.19,16.19,0,0,1-5.46,7.79C369.74,259.57,367.75,260.39,365.73,259.78Z" transform="translate(-7.54 -9.83)" style="fill:#2cae5c"/><path d="M259.64,237.55c0,.31-.23.48-.41.67-8.84,9.21-17.65,18.45-26.68,27.48a43.9,43.9,0,0,1-18.92,10.92,59.71,59.71,0,0,1-10.12,1.86c-.42,0-.89,0-1.2.36-3,.31-6,.68-8.67-1.06-.5-.31-1.2-.64-1.09-1.3s.93-.63,1.49-.68A62.57,62.57,0,0,0,206.21,274a64.35,64.35,0,0,1-13.44,1.84,5.6,5.6,0,0,1-4.43-2.05c-.79-.81-.6-1.34.57-1.47,1.57-.18,3.15-.22,4.73-.34a49,49,0,0,0,8.82-1.51,60.84,60.84,0,0,1-14.59,1.79,4.64,4.64,0,0,1-3.49-2.56c-.29-1.11.65-1,1.21-1,2.12-.17,4.24-.26,6.35-.5,2.39-.28,4.73-.76,6-1a64.83,64.83,0,0,1-13.88,1.52c-1.25,0-3-1.76-3.08-3.15-.09-1.19.65-2,2.3-2.27a28.89,28.89,0,0,1,7.49,0,18.73,18.73,0,0,0,6.19-1.41,4.89,4.89,0,0,0,2.41-1.89c.95-1.52.69-2.42-1-3.06-.66-.25-1.36-.39-2.05-.58s-1.69-.42-2.52-.68a4.18,4.18,0,0,1-1.84-1,1.75,1.75,0,0,1-.67-1.59c.16-.61.88-.49,1.39-.6,2.08-.44,4.16-.91,6.24-1.32.77-.15,1.18-.48,1.06-1.32a8.66,8.66,0,0,1,0-1.14V125.07c0-.71.05-1.42.07-2.12,1,.36.55,1.2.55,1.82,0,10.27,0,20.53,0,30.79,0,7.92.07,15.84,0,23.75-.26,23.25-.11,46.49-.16,69.74,0,.29.1.6,0,.79a5.37,5.37,0,0,0,0-1.51q0-29.9,0-59.78c0-.55-.45-1.29.39-1.68,0,.59.05,1.19.05,1.79v61.5c.46.35.81.12,1.15,0a42.28,42.28,0,0,0,6.29-2.31,13,13,0,0,0,4.62-3.57c7-8.46,13.77-17.09,20.56-25.7q11.76-14.92,23.48-29.87a7.71,7.71,0,0,0,1.26-2.21c.72,1,.6,2.25,1.16,3.33,2.71,5.21,7,8.89,11.67,12.15a67.52,67.52,0,0,0,13.39,7.15,3.07,3.07,0,0,1,1.66,1,4.64,4.64,0,0,0-1.59,1.33L274.11,222.5l-.22-.11c-4.61-4.52-12.93-2.43-15.36,3.87a11.19,11.19,0,0,0,.45,9.62A5.25,5.25,0,0,1,259.64,237.55Z" transform="translate(-7.54 -9.83)" style="fill:#f36f45"/><path d="M190.8,263.22c-.69.47-1.48.21-2.22.27-1.9.15-3.83-.18-5.71.28-1.61.38-2,1.42-1,2.71.26.35.52.7.79,1,.47.57.93,1,1.81.64a5.07,5.07,0,0,1,1.79-.06,51.51,51.51,0,0,0,12.42-1.59l1.11-.26c.31-.07.71-.25.79.22s-.32.52-.64.6a61.76,61.76,0,0,1-6.87,1.35c-2.8.36-5.62.55-8.72.71a24.16,24.16,0,0,0,2.57,2.65.69.69,0,0,0,.62.13c2.64-.41,5.32-.11,8-.54a70.82,70.82,0,0,0,7.36-1.43c.42-.12.81-.33,1.25-.05.13.57-.36.64-.67.72a69.27,69.27,0,0,1-7,1.43c-2.7.37-5.42.4-8.11.7a4.85,4.85,0,0,0,3.82,2.57,50.4,50.4,0,0,0,14-1.77c.42-.11.82-.32,1.26,0,.06.62-.47.65-.84.77a49.09,49.09,0,0,1-6.7,1.36c-2.35.38-4.75.26-7.3.8a8,8,0,0,0,5,2.16,19.11,19.11,0,0,1,4.72.24,11.49,11.49,0,0,1,6.95,5.85,1.8,1.8,0,0,0,1.9,1.11c2-.06,4,0,6.06,0,1.3,0,1.31,0,1.66-1.36a15.49,15.49,0,0,1,2.65-5.59A12.73,12.73,0,0,1,243,281c.4.83.76,1.68,1.2,2.64,4.59-2.21,9.08-2.15,13.28.91a13,13,0,0,1,5.19,7.62,2.71,2.71,0,0,1-1.72.26H129.53c-1.82,0-1.93-.15-1.55-2a8.7,8.7,0,0,1,12.22-6.13c.34.15.63.43,1.08.41a31.9,31.9,0,0,1,.76-3.49c1.69-5.16,5-8.68,10.47-9.69a11.22,11.22,0,0,1,7.43,1.33c.43.23.85.49,1.25.73.44-.24.39-.66.47-1a17.75,17.75,0,0,1,15.45-13.37,19.11,19.11,0,0,1,12,2.57A5.57,5.57,0,0,1,190.8,263.22Z" transform="translate(-7.54 -9.83)" style="fill:#423c52"/><path d="M316.27,259.78a3.28,3.28,0,0,1,1.61-.22h44.85c.44,0,.87,0,1.31.05-2.78,2.4-3,5.56-2.55,8.85a36.37,36.37,0,0,0,4.3,12.12,46.5,46.5,0,0,0,12.6,15.1c.26.2.51.42.76.63-.45.3-.76-.09-1.09-.22-1.88-.75-3.75-1.5-5.59-2.33a17.8,17.8,0,0,0-7.48-1.49c-15.67,0-31.35,0-47,.06a4.08,4.08,0,0,1-3.86-2.19,19.28,19.28,0,0,1-2.39-6.74,37.59,37.59,0,0,1,.47-16.55,17.91,17.91,0,0,1,2-4.83A6,6,0,0,1,316.27,259.78Z" transform="translate(-7.54 -9.83)" style="fill:#433d52"/><path d="M392.59,258.93l.83.13c0,.63-.58.89-.95,1.27a6.33,6.33,0,0,0-1.74,5.55c.49,4.1,2.27,7.73,4.16,11.3a51.84,51.84,0,0,0,14.81,17.87,19.08,19.08,0,0,0,7.72,3.8,1.41,1.41,0,0,1,1.19.74,11,11,0,0,1-8.73-.52c-3.95-2-7.88-4-11.82-6a5.38,5.38,0,0,0-2.3-.81c-.52-.14-.6-.58-.71-1-2-8.08-6.14-15-11.36-21.37a39,39,0,0,0-9.14-8.61c-1-.63-2.33-.7-3.09-1.75,4.67-4,6.37-9.44,7-15.35.8-7.71-.33-15.21-2.15-22.65-.22-.9-.54-1.78-.72-2.69a1.37,1.37,0,0,0-1.49-1.19c-1.36-.08-2.71-.24-4.07-.31-5.88-.31-11.76-.66-17.65-.8-4.9-.12-9.81-.23-14.72-.2-4.2,0-8.38.34-12.57.6-.49,0-1,0-1.47,0a3.15,3.15,0,0,1-1.42-1.53c-4.28-7-8.63-13.88-12.91-20.85-2.07-3.36-4.4-3.65-7-.69-1.68,1.87-3.41,3.68-5.18,5.45a3,3,0,0,1-1.27,1c-2.87,2.75-5.46,5.75-8.23,8.59-.41.43-.72,1-1.32,1.19a45.46,45.46,0,0,1-8.22-3.58,56.38,56.38,0,0,1-9.15-5.69c-3.82-3-7.43-6.25-9.65-10.73a6.6,6.6,0,0,1-.86-3.6q5-6.47,10-12.94c2.88-3.71,5.81-7.38,8.67-11.11A35.44,35.44,0,0,1,297.73,149c.32-.07.63-.19.94-.29,1.4-1.06,3.1-1,4.69-1,2.61-.15,5.22-.1,7.83,0q3-.06,6,0c6.62,0,13.24,0,19.87,0a2.83,2.83,0,0,1,2,.46l3.93.05c10.82.22,19.55,4.66,25.85,13.41,8.38,11.65,16.38,23.55,23.67,35.92a109.25,109.25,0,0,1,8.13,16,21.91,21.91,0,0,1,1.29,4.89,6.18,6.18,0,0,1-2.51,6,13.26,13.26,0,0,1-5.85,2.38c-1.09-1-1.16-2.45-1.43-3.73a3.24,3.24,0,0,0-2.95-2.74c-3.64-.76-7.31-1.24-11-1.73-1.16-.15-1.34.2-1,1.23a69.7,69.7,0,0,1,2.68,22.62c-.27,5.77-1.5,11.23-5.29,15.83-.27.33-.88.64-.32,1.22l11.07-.27c2.29-.33,4.61.11,6.9-.23Z" transform="translate(-7.54 -9.83)" style="fill:#433d52"/><path d="M339,148l-21.94,0c-1.53-.94-1.29-2.6-1.64-4a2,2,0,0,1,.05-.49,6,6,0,0,0,.19-1.45,6.67,6.67,0,0,1,2.51-4.55,16.33,16.33,0,0,1,2-1.36,4.8,4.8,0,0,0,2.15-6.17,5,5,0,0,0-5.76-2.93,62.29,62.29,0,0,1-7.15,1.66,16.12,16.12,0,0,1-8.57-1.53,2.22,2.22,0,0,1-1.18-1.08c-1.31-2.43-.72-4.62.87-6.66a9.35,9.35,0,0,1,3-2.47,37.31,37.31,0,0,1,8.15-3.26,12.14,12.14,0,0,1,8.86,1c.68.35,1.36.67,2,1,2.8,2.25,5.79,4.22,8.68,6.34,3.17,2.32,6.2,4.78,8.38,8.13A16.28,16.28,0,0,1,342,142.88,10.58,10.58,0,0,1,339,148Z" transform="translate(-7.54 -9.83)" style="fill:#ffdb00"/><path d="M200.94,186.87c-.42.59-.21,1.27-.21,1.9q0,29.91,0,59.81a5.2,5.2,0,0,1-.15,1.95,3.81,3.81,0,0,1-.21-2q0-52.84,0-105.69,0-9.09,0-18.19c0-.58.2-1.2-.2-1.74a35,35,0,0,0-4-15.86c-5-10.14-9.75-20.35-14.61-30.53a5,5,0,0,1-.29-1.92,15.85,15.85,0,0,0-1.33-7.12c-.21-.48-.52-1-.17-1.53a22.37,22.37,0,0,1,2.42-5.88c.52,0,.71.44,1,.77a11.64,11.64,0,0,1,1.58,11.62,10.69,10.69,0,0,1-1.45,2.93,2.22,2.22,0,0,0-.12,2.67c4.74,9.83,9.43,19.69,14.15,29.53a46.11,46.11,0,0,1,2.61,6.64,3.89,3.89,0,0,0,.21-1.8q0-28.83,0-57.67A16,16,0,0,0,198.65,48c-.3-.66-.56-.91-1.33-.53-3.38,1.66-7.54.71-10.42-3.07,3.41-1.24,6.67-1.46,10,.34,0-.85-.6-1.41-.72-2.13a.53.53,0,0,1,.6-.32l3,6.21.26,0V28.84a.51.51,0,0,1,.87,0V79l.23.06c.4-1,.77-2.08,1.19-3.11l10.56-25.74c.35-.86.7-1.72,1.07-2.57a13.72,13.72,0,0,0,1.24-6c-.19-6.31,3.71-10,8.28-11.95.87-.36,1-.28,1.1.74a14.36,14.36,0,0,1-1.12,7.84,1.12,1.12,0,0,1-.9.63A8.28,8.28,0,0,0,216,44.83c-1.51,3.7-3,7.4-4.67,11.43l5.84-2.63c.31,0,.54.13.51.49-1.9.94-3.8,1.91-5.72,2.8a2.92,2.92,0,0,0-1.62,1.7c-2.48,6.12-5,12.21-7.48,18.33a26,26,0,0,0-1.92,9.9q0,46.11,0,92.22v1.45l.26.06.46-1.3a24.17,24.17,0,0,1,2.34-4.86q11.85-18.46,23.72-36.91a5.08,5.08,0,0,1,.41-.51c.34.09.39.35.38.64-1.66,2.62-3.3,5.26-5,7.87-2,3.08-3.94,6.15-5.91,9.22a1.76,1.76,0,0,0-.51,1.31c4.34-3.45,9.26-4.43,14.69-4-.82,1.94-2.36,3.11-3.61,4.5-.23.41-.62.38-1,.35a18.89,18.89,0,0,0-11.72,2.64c-.33.21-.73.23-1.07.41a7.56,7.56,0,0,0-1.31,1.85c-2.52,3.88-5,7.81-7.53,11.67A27.07,27.07,0,0,0,200.94,186.87Z" transform="translate(-7.54 -9.83)" style="fill:#443e53"/><path d="M371.46,259.53a16.92,16.92,0,0,1,6.82,4,63,63,0,0,1,13.94,18.76,38.51,38.51,0,0,1,3.33,9.51,2.2,2.2,0,0,0,.21.44c.07.65.12,1.3.2,1.94a9.32,9.32,0,0,1-.2,3.57,3.08,3.08,0,0,1-1.93,2.28,8.16,8.16,0,0,1-6.05.13,36.09,36.09,0,0,1-13.5-9.26,46.32,46.32,0,0,1-11.42-19.75,15.43,15.43,0,0,1-.57-6.79,5.47,5.47,0,0,1,3.44-4.6A17.5,17.5,0,0,1,371.46,259.53Z" transform="translate(-7.54 -9.83)" style="fill:#433d52"/><path d="M299.73,126.14a15.73,15.73,0,0,0,11.17,2c1.75-.35,3.48-.85,5.2-1.34a6.27,6.27,0,0,1,2.1-.25,5.38,5.38,0,0,1,4.9,4.31,5.3,5.3,0,0,1-2.47,5.73l-2.25,1.32c-2.38,1.12-4.9,1.91-7.3,3-4.55,1-7.27-.38-9.19-4.58-.31-.69-.59-1.22-1.47-1.28-1.11-.08-1.51-.75-1.1-1.82C299.46,130.82,299.59,128.48,299.73,126.14Z" transform="translate(-7.54 -9.83)" style="fill:#f36f45"/><path d="M418.61,299.59a21.11,21.11,0,0,1-8.73-3.87,49.2,49.2,0,0,1-12.84-14,59.19,59.19,0,0,1-5.65-11.21,20.47,20.47,0,0,1-1.1-4.92,6.3,6.3,0,0,1,3.13-6.52,8.77,8.77,0,0,1,8.12,1,30.08,30.08,0,0,1,6.91,6c5.47,6.18,10,12.91,12.73,20.79.59,1.71.9,3.47,1.42,5.19,0,.87.1,1.74.1,2.61C422.71,298,421.94,299,418.61,299.59Z" transform="translate(-7.54 -9.83)" style="fill:#937f09"/><path d="M299.32,133.17c.28,1.44.35,1.57,1.59,1.4.72-.11,1,.05,1.12.73a6.75,6.75,0,0,0,7.85,5.36,11,11,0,0,1,1.29-.11c.77.87.49,1.95.5,2.94a16.56,16.56,0,0,1-.15,4,1.36,1.36,0,0,1-.36.5c-1.35,0-2.71.09-4.07.05a49.41,49.41,0,0,0-8.42.61c-.37-.22-.74-.45-1.12-.65-3.27-1.73-4.8-6.85-2-10.16A45.92,45.92,0,0,0,299.32,133.17Z" transform="translate(-7.54 -9.83)" style="fill:#ffdb00"/><path d="M274.11,222.5q-5.66,6-11.32,12A19.25,19.25,0,0,1,260,237.2c-3.73-3.84-3-11,1.43-14.92,3.38-3,9.83-2.88,12.57.15Z" transform="translate(-7.54 -9.83)" style="fill:#f36f45"/><path d="M312.44,259.66a4.32,4.32,0,0,1,2.39.11,17.36,17.36,0,0,0-3.69,7.89,38,38,0,0,0,.1,17.48,16.18,16.18,0,0,0,3.34,7.05,9.37,9.37,0,0,1-2.52.05,6.62,6.62,0,0,1-3.35-3.61,20.49,20.49,0,0,1-1.75-6.08,34.58,34.58,0,0,1,.91-15.3,21.49,21.49,0,0,1,3.32-6.67C311.33,259.89,312,259.91,312.44,259.66Z" transform="translate(-7.54 -9.83)" style="fill:#433d52"/><path d="M201,28.84h-.87a5.11,5.11,0,0,1-3.73-6,32.61,32.61,0,0,1,1.37-5.22c.82-2.59,1.66-5.18,2.71-7.75a2.31,2.31,0,0,1,.7,1.28,105.79,105.79,0,0,1,3.3,10.27A9.09,9.09,0,0,1,204.8,24,5,5,0,0,1,201,28.84Z" transform="translate(-7.54 -9.83)" style="fill:#2cae5c"/><path d="M218.9,130.21c2.87,7.06.82,15-4.07,19.09C211.29,143,212.78,134.17,218.9,130.21Z" transform="translate(-7.54 -9.83)" style="fill:#2cae5c"/><path d="M227.59,295.51a5.33,5.33,0,1,1-5.3,5.45A5.3,5.3,0,0,1,227.59,295.51Z" transform="translate(-7.54 -9.83)" style="fill:#423c52"/><path d="M228.52,137.64a.82.82,0,0,1-.38-.64,24.32,24.32,0,0,1,1.09-7.39,13.54,13.54,0,0,1,7.83-8.71,10.89,10.89,0,0,1,.19,5A14.79,14.79,0,0,1,231,136C230.17,136.59,229.34,137.1,228.52,137.64Z" transform="translate(-7.54 -9.83)" style="fill:#2cae5c"/><path d="M214.42,159.93a8.85,8.85,0,0,1,3.86-2.31,20.7,20.7,0,0,1,9.93-1.09,30.72,30.72,0,0,1,6.48,1.55C230.76,161.72,221.9,163.45,214.42,159.93Z" transform="translate(-7.54 -9.83)" style="fill:#2cae5c"/><path d="M196.79,42.26a.77.77,0,0,1-.6.32,24.17,24.17,0,0,1-2.81-1.67c-3.44-2.67-4.52-6.26-4-10.43a5.07,5.07,0,0,1,.56-2.37c.52-.1.78.3,1.1.55,2.78,2.22,5,4.84,5.85,8.42A13.09,13.09,0,0,1,196.79,42.26Z" transform="translate(-7.54 -9.83)" style="fill:#2cae5c"/><path d="M179.71,66a17.33,17.33,0,0,1,1.92,9.77,7.4,7.4,0,0,1-.13.8c-6-3.47-8.18-8.86-8.09-15.54a3.11,3.11,0,0,1,1.86.7A15.83,15.83,0,0,1,179.71,66Z" transform="translate(-7.54 -9.83)" style="fill:#2cae5c"/><path d="M243.31,138.41c-3.31,4.94-10.45,7-15.6,4.34C230.28,138.72,236.91,136.49,243.31,138.41Z" transform="translate(-7.54 -9.83)" style="fill:#433d53"/><path d="M217.69,54.12l-.51-.49c.14-.24.3-.46.42-.7C219.68,48.54,224,47,228.92,48a4.17,4.17,0,0,1,.44.19c-1,3-4.61,6-8.57,6.1A14.65,14.65,0,0,1,217.69,54.12Z" transform="translate(-7.54 -9.83)" style="fill:#2cae5c"/><path d="M216,44.83c-.41-.39-.19-.78,0-1.19a8.54,8.54,0,0,1,6.24-5c.42-.09.84-.2,1.26-.31a18.44,18.44,0,0,1,4.19.47c.23.49-.12.83-.34,1.17a9.89,9.89,0,0,1-9.07,5C217.52,44.92,216.77,44.87,216,44.83Z" transform="translate(-7.54 -9.83)" style="fill:#2cae5c"/><path d="M171,79.5c4.93-.58,9.84,3.15,10.39,7.79.06.57-.1.81-.7.74A10.78,10.78,0,0,1,171,79.5Z" transform="translate(-7.54 -9.83)" style="fill:#433d53"/><path d="M192.37,88.69a13.5,13.5,0,0,1-1.3-14.64C194.44,77.26,195.32,85,192.37,88.69Z" transform="translate(-7.54 -9.83)" style="fill:#2cae5c"/><path d="M274,222.43c-.64.13-1-.42-1.42-.68a9.5,9.5,0,0,0-7.86-.83c-3.77,1.14-6.41,5-6.69,9a9.93,9.93,0,0,0,1.25,5.64,4.28,4.28,0,0,1,.72,1.63c-.14.11-.27.23-.4.35a8.33,8.33,0,0,1-2.05-4.17c-.92-4.16-.07-7.9,3-10.9a9.92,9.92,0,0,1,12-1.66C273.29,221.18,274.06,221.48,274,222.43Z" transform="translate(-7.54 -9.83)" style="fill:#4b3e53"/><path d="M238.67,295.28a2.08,2.08,0,0,1,2.05,2.25,2.12,2.12,0,0,1-2.17,2,2.17,2.17,0,0,1-2.07-2.26A2.14,2.14,0,0,1,238.67,295.28Z" transform="translate(-7.54 -9.83)" style="fill:#453f55"/><path d="M374.22,259.46l-1.11.06a.51.51,0,0,1,.18-.61,20.54,20.54,0,0,0,5.43-11,51.77,51.77,0,0,0,.4-15.32,74.33,74.33,0,0,0-2.63-13.46c-.09-.31-.14-.64-.23-1.07,1.24-.34,2.4.12,3.54.24a95.26,95.26,0,0,1,10.32,1.7,2.43,2.43,0,0,1,2.24,2.15c.28,1.55.78,3.06,1.19,4.59l.24,1.63c-.73.7-1.65.41-2.49.48-1.45.13-3.3-.64-4.24.37s-.29,2.81-.31,4.26c0,3,0,6,0,9a2.22,2.22,0,0,0,1,2.05c1.45,1.05,2.92,2.08,4.28,3.26.44.38,1,.66,1.12,1.34a12.57,12.57,0,0,1-7.21,7.1,45.1,45.1,0,0,1-11.42,3.08C374.4,259.32,374.31,259.41,374.22,259.46Z" transform="translate(-7.54 -9.83)" style="fill:#2cae5c"/><path d="M393.86,229.06a14.67,14.67,0,0,1,.86,4.28,34.08,34.08,0,0,1-.26,12,8,8,0,0,1-1,2.88c-.61.19-1-.17-1.47-.49-5.19-3.74-5.2-3.73-5.19-10.19,0-2.29,0-4.58,0-6.87,0-1.64.32-1.95,1.92-1.9S392.17,228.43,393.86,229.06Z" transform="translate(-7.54 -9.83)" style="fill:#2cae5c"/><path d="M393.86,229.06c-1.79.22-3.59.05-5.38.11-1.18,0-1.22,0-1.22,1.17,0,4.08,0,8.17,0,12.25a1.69,1.69,0,0,0,.7,1.53c1.83,1.36,3.58,2.84,5.49,4.1.08.36.1.7-.3.91-2.09-1.57-4.17-3.14-6.27-4.7a1.41,1.41,0,0,1-.56-1.27c0-4.52,0-9,0-13.56,0-1.1.14-1.21,1.26-1.22,2.07,0,4.14,0,6.21,0C393.81,228.62,393.84,228.84,393.86,229.06Z" transform="translate(-7.54 -9.83)" style="fill:#60404c"/><path d="M392.19,259a3.09,3.09,0,0,1-1.89.24c-1.67,0-3.34,0-5,0a.94.94,0,0,1,.73-.27Z" transform="translate(-7.54 -9.83)" style="fill:#937f09"/><path d="M355.86,228.39h9c1.57,0,1.62,0,1.63,1.51,0,4.31,0,8.63,0,12.94a1.93,1.93,0,0,1-.92,1.78q-4.5,3-9,6a1.12,1.12,0,0,1-1.47,0q-4.53-3.1-9.1-6.13a1.61,1.61,0,0,1-.77-1.5c0-4.48,0-8.95,0-13.43,0-1.19.06-1.23,1.36-1.24Z" transform="translate(-7.54 -9.83)" style="fill:#4d3d50"/><path d="M312.44,259.66a3,3,0,0,1-1.25.92c-5.78,0-11.57,0-17.35-.06-.62,0-1.73.45-1.75-.5,0-.7,1.09-.41,1.69-.41,5.73,0,11.46,0,17.19,0C311.46,259.6,312,259.64,312.44,259.66Z" transform="translate(-7.54 -9.83)" style="fill:#61404c"/><path d="M228.67,285.05a2,2,0,0,1-2,2.12,2.08,2.08,0,0,1-2.22-2.08,2.15,2.15,0,0,1,2.18-2.15A2.11,2.11,0,0,1,228.67,285.05Z" transform="translate(-7.54 -9.83)" style="fill:#fcfcfd"/><path d="M400.27,215.4c-3-2.19-6.26-2.84-9.56-3.36a83.56,83.56,0,0,0-12.75-.78c-8.31,0-16.59.53-24.86,1.32-7.61.72-15.19,1.65-22.76,2.71-1.67.24-3.37.38-5,.76-1,.24-1.47-.19-1.94-1Q319,208,314.6,200.89c-1.55-2.51-3.09-5-4.66-7.51-2.08-3.3-5.38-3.65-8.06-.83-4.93,5.19-9.82,10.42-14.73,15.62-1.29,1.36-.85,1.27-2.6.52a72.89,72.89,0,0,1-14.86-8.24,36.14,36.14,0,0,1-7.86-7.61,19.52,19.52,0,0,1-2.59-4.72,1.76,1.76,0,0,1,.33-1.94c6.44-8.21,12.72-16.54,19.31-24.62,6.82-8.36,15.85-12.53,26.62-12.64q18.69-.18,37.37,0c10.78.12,19.39,4.68,25.62,13.5,7.95,11.23,15.69,22.61,22.72,34.45a115.18,115.18,0,0,1,8.29,16A9.16,9.16,0,0,1,400.27,215.4Z" transform="translate(-7.54 -9.83)" style="fill:#fff"/><path d="M311.16,148a.31.31,0,0,1,.08-.24,42.19,42.19,0,0,1,3.43-3.52c.29-.28.6-.67,1.12-.43a11.36,11.36,0,0,0,1.31,4.22A58.85,58.85,0,0,1,311.16,148Z" transform="translate(-7.54 -9.83)" style="fill:#f36f45"/><path d="M315.79,143.84a35,35,0,0,0-3.26,3.07c-.39.35-.69.84-1.29.88,0-2.41,0-4.83-.07-7.24a6.44,6.44,0,0,1,2.44-1.18c1.19-.48,2.38-1,3.59-1.39.36-.12.74-.53,1.18-.12a8,8,0,0,0-2.36,4.4c-.19.4,0,.87-.19,1.27A.55.55,0,0,1,315.79,143.84Z" transform="translate(-7.54 -9.83)" style="fill:#433d52"/><path d="M315.83,143.53c-.07-.45-.17-.89.19-1.27A1.72,1.72,0,0,1,315.83,143.53Z" transform="translate(-7.54 -9.83)" style="fill:#9f5258"/><path d="M385.88,273.45a2.39,2.39,0,0,1-1.43.21H367.92c-.52,0-1.18.25-1.53-.27a5.63,5.63,0,0,1-.81-2.12.36.36,0,0,1,.36-.43c.44,0,.88,0,1.31,0,5,0,10,.05,15.06,0a2.61,2.61,0,0,1,2.66,1.4C385.21,272.59,385.53,273,385.88,273.45Z" transform="translate(-7.54 -9.83)" style="fill:#fdfdfb"/><path d="M393.47,288.31h-3.92c-4.09,0-8.18-.09-12.27,0a3.08,3.08,0,0,1-3.08-1.61c-.22-.36-.63-.61-.63-1.29h17.26c2,0,2,0,2.61,1.84A1.26,1.26,0,0,1,393.47,288.31Z" transform="translate(-7.54 -9.83)" style="fill:#fdfcfa"/><path d="M369,278.17h4.11c4.74,0,9.48.05,14.22,0,1.4,0,2.29.34,2.73,1.68a8.24,8.24,0,0,0,.47.95,3.11,3.11,0,0,1-1.48.16c-5.66,0-11.33,0-17,0-1.3,0-2.21-.26-2.66-1.54C369.25,279.08,368.91,278.83,369,278.17Z" transform="translate(-7.54 -9.83)" style="fill:#fff"/><path d="M388.28,277.3h-9.39c-3,0-6-.09-9,0a2.22,2.22,0,0,1-2.54-1.67c-.11-.3-.25-.58-.42-1a3.05,3.05,0,0,1,1.63-.2c5.45,0,10.9,0,16.35,0a2.55,2.55,0,0,1,2.76,1.47C387.85,276.34,388.24,276.61,388.28,277.3Z" transform="translate(-7.54 -9.83)" style="fill:#fffffe"/><path d="M392.07,284.48a4.79,4.79,0,0,1-1.67.12c-5.29,0-10.58-.06-15.86,0-1.45,0-2.41-.33-3-1.66-.15-.33-.53-.56-.44-1.05a3.56,3.56,0,0,1,1.56-.11H389.2c2,0,2,0,2.72,1.79A1.09,1.09,0,0,1,392.07,284.48Z" transform="translate(-7.54 -9.83)" style="fill:#fffefe"/><path d="M383,269.78c-.33.35-.67.24-1,.24q-7.77,0-15.54,0c-.46,0-1.09.24-1.34-.29a4.34,4.34,0,0,1-.46-2.22c0-.26.24-.33.47-.33l1.15,0c4.3,0,8.61.05,12.92,0a2.83,2.83,0,0,1,2.76,1.29C382.25,268.89,382.8,269.22,383,269.78Z" transform="translate(-7.54 -9.83)" style="fill:#fdfdfc"/><path d="M394.55,292h-4.68c-3.11,0-6.23-.07-9.33,0a3.27,3.27,0,0,1-3-1.31,6.73,6.73,0,0,1-1.15-1.43,2.37,2.37,0,0,1,1.31-.16h14.58c1.8,0,1.8,0,2.19,1.8A1.43,1.43,0,0,1,394.55,292Z" transform="translate(-7.54 -9.83)" style="fill:#fdfdfb"/><path d="M379.72,266.09a.89.89,0,0,1-.88.3h-13.1c-1.3,0-1.37-.08-1.35-1,0-1.51.24-1.82,1.39-1.83,3.44,0,6.88,0,10.32,0a2.14,2.14,0,0,1,1.62.6A17.77,17.77,0,0,1,379.72,266.09Z" transform="translate(-7.54 -9.83)" style="fill:#fdfdfb"/><path d="M380.14,293.06c.11-.4.31-.33.45-.33h13.27c.41,0,.95-.14,1.1.43a3.58,3.58,0,0,1,.07,2.24c-.12.31-.59.2-.91.2h-6.38a19.07,19.07,0,0,0-2.62,0C382.77,295.93,381.52,294.36,380.14,293.06Z" transform="translate(-7.54 -9.83)" style="fill:#fdfdfb"/><path d="M385,296.36c3.05,0,6.09,0,9.14,0,1.07,0,1.17.17.92,1.13a2.46,2.46,0,0,1-2.3,2,5.54,5.54,0,0,1-1.94-.11,17.21,17.21,0,0,1-6-2.69Z" transform="translate(-7.54 -9.83)" style="fill:#fcfbf7"/><path d="M375.41,262.68H365.27a2.44,2.44,0,0,1,1.3-1.62,5.86,5.86,0,0,1,4.39-.76A8.5,8.5,0,0,1,375.41,262.68Z" transform="translate(-7.54 -9.83)" style="fill:#faf9f5"/><path d="M418.09,281.92a4.2,4.2,0,0,1-1.72.16c-5.4,0-10.81-.06-16.21,0a2.67,2.67,0,0,1-2.94-1.7c-.14-.34-.52-.58-.33-1.19h17.73C417.24,279.23,417.24,279.23,418.09,281.92Z" transform="translate(-7.54 -9.83)" style="fill:#fdfdfa"/><path d="M419.67,285.73h-16.8c-2.36,0-2.74-.28-3.77-2.86h17.48C419.09,282.87,419.09,282.87,419.67,285.73Z" transform="translate(-7.54 -9.83)" style="fill:#fefdfc"/><path d="M416.07,278.22a4,4,0,0,1-1.78.14c-5.45,0-10.9-.06-16.34.05-1.55,0-2.47-.43-2.95-1.85-.09-.25-.31-.46-.24-.81.4-.29.9-.15,1.36-.15,5.61,0,11.22,0,16.83-.05,1.39,0,2.29.34,2.78,1.63C415.84,277.48,416.14,277.7,416.07,278.22Z" transform="translate(-7.54 -9.83)" style="fill:#fefefe"/><path d="M401.75,286.5h17.13c1.33,0,1.34,0,1.72,1.22.15.46.24.94.38,1.48a2.91,2.91,0,0,1-1.44.16c-4.64,0-9.28,0-13.91,0a3,3,0,0,1-2.91-1.35C402.42,287.59,401.92,287.3,401.75,286.5Z" transform="translate(-7.54 -9.83)" style="fill:#fdfdfb"/><path d="M408.19,267.43H392.51c-1.14,0-1.16-.05-1.3-1.19a7.34,7.34,0,0,1,0-.81c0-1.24,0-1.26,1.24-1.27,4,0,8.07,0,12.1,0a1.74,1.74,0,0,1,1.48.49c.76.84,1.56,1.64,2.35,2.46Z" transform="translate(-7.54 -9.83)" style="fill:#fdfdfb"/><path d="M392.92,272h5.25c4.09,0,8.18,0,12.27,0a2.59,2.59,0,0,1,2.77,1.44c.19.38.59.64.66,1.21a2.8,2.8,0,0,1-1.38.12H396c-2,0-2,0-2.8-1.91C393.1,272.6,393.06,272.4,392.92,272Z" transform="translate(-7.54 -9.83)" style="fill:#fff"/><path d="M411.26,271.07H394c-1.58,0-1.58,0-2-1.48a7.13,7.13,0,0,1-.18-.8,1.32,1.32,0,0,1,.07-.32,2.88,2.88,0,0,1,1.59-.17c4.7,0,9.39.05,14.08,0a2.94,2.94,0,0,1,3,1.5C410.72,270.13,411.12,270.38,411.26,271.07Z" transform="translate(-7.54 -9.83)" style="fill:#fffffe"/><path d="M404.85,290.15c5.36,0,10.38,0,15.39,0,.83,0,1.18.31,1.28,1.09a4.14,4.14,0,0,1,.12,1.6,1.18,1.18,0,0,1-.79.17c-4,0-8.08,0-12.11,0a2.27,2.27,0,0,1-1.77-.66A16.76,16.76,0,0,1,404.85,290.15Z" transform="translate(-7.54 -9.83)" style="fill:#fdfcfa"/><path d="M409.38,293.86h2.56c2.95,0,5.89,0,8.83,0,1.12,0,1.22.12,1.14,1.23a9.53,9.53,0,0,1-.26,1.6,2.37,2.37,0,0,1-2.22,1.86,7.06,7.06,0,0,1-3.06-.37,23.47,23.47,0,0,1-7.06-3.95Z" transform="translate(-7.54 -9.83)" style="fill:#fffffe"/><path d="M391.4,263.23c.12-2.84,3.53-4.41,6.18-3.86a13.73,13.73,0,0,1,6.65,3.86Z" transform="translate(-7.54 -9.83)" style="fill:#fdfcfa"/><path d="M355.91,229.15c2.78,0,5.56,0,8.35,0,1.3,0,1.33,0,1.33,1.22,0,4.09,0,8.18,0,12.26a1.56,1.56,0,0,1-.78,1.48q-4.08,2.73-8.12,5.51a1.19,1.19,0,0,1-1.6,0q-4-2.79-8.12-5.5a1.58,1.58,0,0,1-.77-1.49c0-4.08,0-8.17,0-12.26,0-1.21,0-1.23,1.34-1.23C350.35,229.14,353.13,229.15,355.91,229.15Z" transform="translate(-7.54 -9.83)" style="fill:#2cae5c"/><path d="M305.22,132.67a.48.48,0,0,1,.51.44.52.52,0,0,1-.46.55.47.47,0,0,1-.54-.46A.53.53,0,0,1,305.22,132.67Z" transform="translate(-7.54 -9.83)" style="fill:#4c3f53"/><path d="M302.9,129.81s5.07-1.25,6.5,2.86" transform="translate(-7.54 -9.83)" style="fill:none;stroke:#4c3f53;stroke-miterlimit:10;stroke-width:0.5px"/><path d="M10.89,240.88c2.58-9.33,6-18.36,9.35-27.42,2.55-6.91,5-13.86,7.19-20.9a233.81,233.81,0,0,0,8-35.72c.93-6.43,1.59-12.89,2.1-19.37q1.19-14.94,1.36-29.94c.06-3.76.16-7.53.24-11.3.84.17.85.93,1,1.52a154,154,0,0,0,10.43,26.46c.68,1.37,1.58,2.62,2.18,4a159.17,159.17,0,0,0,10.74,17,2.7,2.7,0,0,1,.27.39,124,124,0,0,0,9.69,12.12c1.2,1.34,2.3,2.77,3.62,4a1.73,1.73,0,0,1,.63,1.45c-1,8.74-3.28,17.23-5.56,25.7-2.78,10.37-5.87,20.66-8.8,31-2.21,7.81-4.4,15.63-6.36,23.51q-2.7,10.88-4.6,21.91c-.19,1.11-.61,1.84-1.89,1.77-8.18-.44-16.32-1.23-24.41-2.48-2.05-.31-4.11-.58-6.14-1-3.5-.56-7-1.23-10.41-2-1.82-.43-2.09-.73-2-2.57a83.16,83.16,0,0,1,2.61-16.89A2.73,2.73,0,0,1,10.89,240.88Z" transform="translate(-7.54 -9.83)" style="fill:#2cae5c"/><path d="M52.55,128.49a124.43,124.43,0,0,1-7.79-16.21,128.56,128.56,0,0,1-5-14.69,3,3,0,0,0-.53-1.36c-.6-2.7-1.22-5.41-1.81-8.12a28.94,28.94,0,0,1-.93-8.24,12.26,12.26,0,0,1,8.36-11c.82-.29,1.67-.49,2.51-.73,5.45-1.5,12.29,2.3,14.53,8.2,2.74,7.25,5.59,14.44,8.69,21.54s6.41,14.2,10,21.11a.38.38,0,0,0,.4.21c.67.34.45,1,.67,1.56s.1,1.15.73,1.44c1.69,3.28,3.54,6.47,5.48,9.6,1.18,1.9,2.37,3.79,3.62,5.63.23.32.5.6.75.91,5.37,7.94,11.32,15.34,19.55,20.58.51.32,1,.69,1,1.38s-.72,1.06-1.35,1.24a30.85,30.85,0,0,1-5.82.78c-1.06.1-2.55-.19-2.87,1s1.15,1.69,2,2.2c4.35,2.49,9.14,3.8,13.9,5.21,1.39.41,2.9.54,4.14,1.44a1,1,0,0,1,.24,1.14c-1,.26-1.27,1.42-2.19,1.78-2.77.08-5.34-.89-8-1.58a38.76,38.76,0,0,1-6.16-2.15,60.65,60.65,0,0,0,11.55,3.53c.67.15,1.45.09,1.87.82a17.93,17.93,0,0,1-2.93,2.22A92.06,92.06,0,0,1,106,175l-2.41-.88a70.36,70.36,0,0,0,11.74,3.39c.44.1,1.2-.14,1.23.73A20.56,20.56,0,0,1,112,181a47.15,47.15,0,0,1-12.51-4A42.52,42.52,0,0,0,110,180.56a1.73,1.73,0,0,1,1.39.73,15,15,0,0,1-6.37,2.34c-.83.41-1.47-.14-2.13-.46a74.36,74.36,0,0,1-15-10.3,105.44,105.44,0,0,1-9.67-9,2,2,0,0,1-.58-1c-2.17-2.43-4.39-4.82-6.51-7.3a101.17,101.17,0,0,1-7.59-9.79c3.22-3.19,3.75-7,2.4-11.14s-4-6.94-8.49-7.67A5.41,5.41,0,0,0,53,128.26,1.24,1.24,0,0,1,52.55,128.49Z" transform="translate(-7.54 -9.83)" style="fill:#f36f45"/><path d="M78.19,163.52c2.19,2,4.35,4.13,6.57,6.14A97.36,97.36,0,0,0,100,181.21a23.71,23.71,0,0,0,5,2.42c-4.55,21.39-10.26,42.51-15.23,63.8-1.24,5.31-2.46,10.63-3.47,16a12,12,0,0,1-.43,1.41c-1.27.89-2.8.84-4.24,1.07-9,1.44-18.16,1.46-27.28,1.34-1.93,0-2.2-.35-1.88-2.27,1.76-10.55,4.3-20.92,7.06-31.25,2.8-10.48,5.88-20.89,8.85-31.32C70.72,194.21,73,186,75,177.76a130,130,0,0,0,2.51-12.84,2.31,2.31,0,0,1,.45-1.23Z" transform="translate(-7.54 -9.83)" style="fill:#2cae5c"/><path d="M80.88,119.32c-.09.14-.11.55-.35.3a4.5,4.5,0,0,1-.65-1.13,355.46,355.46,0,0,1-17.8-40.43,15,15,0,0,0-5-7.3,13.36,13.36,0,0,0-7.94-2.65h-1.8a7.47,7.47,0,0,1,3.63-.7H63a6.78,6.78,0,0,0,4.87,4.15A14.81,14.81,0,0,0,77,71a4.36,4.36,0,0,0,2.27-2.26c.22-.48.34-1,.9-1.31a18.57,18.57,0,0,1,7.65,1.38,12.87,12.87,0,0,1,7.94,8,186.44,186.44,0,0,1,8,26.48c.16.75.59,1.68-.71,1.94-1.91-.23-3.63-1.09-5.48-1.53a13.51,13.51,0,0,0-16.15,9.92,20.36,20.36,0,0,0-.22,3.73C81.19,118,81.39,118.71,80.88,119.32Z" transform="translate(-7.54 -9.83)" style="fill:#2cae5c"/><path d="M13,292.76c1.07-3.6,1.82-7.27,2.71-10.91,1.52-6.19,3-12.39,4.48-18.58,4.7.64,9.37,1.45,14.09,2s9.54,1,14.33,1.25c.71,0,1.42.07,2.12.16s1.13-.23,1.26-1.06c.58-3.88,1.35-7.73,2.16-11.56,2.18-10.3,5-20.45,7.78-30.58,3.93-14.07,8.24-28,11.82-42.2a131.26,131.26,0,0,0,3.49-17.46,1.91,1.91,0,0,1,.35-.9,1.61,1.61,0,0,1,.61.63h0c-.32.26-.1.67-.26,1A97.94,97.94,0,0,1,75.38,178c-3,12.74-6.85,25.28-10.45,37.87-3.42,12-6.82,24-9.55,36.25q-1.53,6.87-2.65,13.82a4.16,4.16,0,0,0,0,.61,2.69,2.69,0,0,0,1.49.21,177.19,177.19,0,0,0,19-.37,111.58,111.58,0,0,0,11.52-1.46,11,11,0,0,1,1.14-.1c-.54,3.37-1.1,6.73-1.62,10.11-.13.85-.15,1.72-.21,2.58-.22,4.41.17,8.68,2.56,12.55A10.45,10.45,0,0,1,88,293a44.79,44.79,0,0,0,5.94,7,5.24,5.24,0,0,0,1.09.71,1.75,1.75,0,0,1,.82,2,1.78,1.78,0,0,1-1.59,1.44,7.12,7.12,0,0,1-1.31,0q-38.83,0-77.67,0c-.33,0-.66,0-1,0a2,2,0,0,1-1.92-1.69,1.92,1.92,0,0,1,1.36-2c.3-.12.67,0,1-.37C12.26,298.08,12.28,295.5,13,292.76Z" transform="translate(-7.54 -9.83)" style="fill:#423c52"/><path d="M63.42,53.22c-2.08,4.71-6,7-10.74,8.29a16.83,16.83,0,0,1-8.43.06,11.21,11.21,0,0,1-3.71-1.67,7,7,0,0,1-2.43-9.09,10.69,10.69,0,0,1,3.13-3.94,18,18,0,0,1,15.84-3.65,13.63,13.63,0,0,1,4.61,2.32c.06-1,.07-1.78.19-2.56.93-6.12,5.28-9.79,11.48-9.54A14.47,14.47,0,0,1,85.77,40.5,3.93,3.93,0,0,1,86.46,42c-1.18-.23-1.74.29-2.28,1.39-2.1,4.22-5.83,6.1-10.69,5.45a34.81,34.81,0,0,0-4.89-.23c-2.57,0-3.8.93-4.59,3.34C63.86,52.37,63.84,52.89,63.42,53.22Z" transform="translate(-7.54 -9.83)" style="fill:#ffdb00"/><path d="M63.42,53.22A5.39,5.39,0,0,1,64,50.54a4.26,4.26,0,0,1,3.78-2.43c2.29,0,4.56.16,6.84.3,5,.33,8.48-2.27,9.95-7.39.72.11,1.2.72,1.86.94a14.7,14.7,0,0,1,1.76,6.51c-.07.15-.16.32-.3.37-3.35,1.15-4.09,3.92-4.35,7,.15-.78.18-1.59.38-2.37a9.09,9.09,0,0,1,1-2.4,2.92,2.92,0,0,1,3.31-1.62,26.07,26.07,0,0,1-1.2,7.84,12.27,12.27,0,0,1-1.62,3.36,4,4,0,0,1-3.37,2,1.14,1.14,0,0,0-1.2.63,15.94,15.94,0,0,1-8.81-5.1,10.72,10.72,0,0,0,5.57,7.81,15.22,15.22,0,0,1,2.47,1.2.37.37,0,0,1,.09.25c-.51,2.79-2.36,4.16-5,4.68a16.14,16.14,0,0,1-8.36-.33c-2.08-.69-3.66-1.9-3.84-4.32,1.7-3.38,3.41-6.75,5.19-10.28a5.05,5.05,0,0,1-3.75-1.75C63.94,54.75,63.88,53.89,63.42,53.22Z" transform="translate(-7.54 -9.83)" style="fill:#f36f45"/><path d="M103.16,104.9c.71-.1.46-.55.37-1-.86-4.06-2-8.05-3.13-12-1.3-4.45-2.8-8.83-4.27-13.23a16.37,16.37,0,0,0-7.74-9.54c-.18-.1-.35-.25-.53-.37a13,13,0,0,1,5.63,2,31.8,31.8,0,0,1,9,8.41,81.88,81.88,0,0,1,9.38,16.22c.77,1.68,1.51,3.38,2.18,5.1a1.44,1.44,0,0,0,1.66,1.14,9.05,9.05,0,0,1,3.4.17c-.51.69-1.27.49-2,.51a26.65,26.65,0,0,0-5.85.36,7.67,7.67,0,0,0-4.2,2.32C106,106.37,104.42,106.34,103.16,104.9Z" transform="translate(-7.54 -9.83)" style="fill:#f36f45"/><path d="M103.16,104.9c.31.41.81.21,1.2.38,1.07.47,1.88.54,2.63-.74a5.29,5.29,0,0,1,3.12-2,12.7,12.7,0,0,1,4.15-.71c1.63,0,3.26,0,4.89,0A46.22,46.22,0,0,1,141.33,109a16.41,16.41,0,0,1,4.67,4.31,6.5,6.5,0,0,1,1.15,4.93c-.71,4.86-1.18,9.75-1.75,14.63q-.63,5.36-1.25,10.74c.61.1.9-.37,1.27-.63,4.08-3,8.13-6.1,12.22-9.11a2.52,2.52,0,0,0,1.13-2.16,11.1,11.1,0,0,1,4.87-9.19,7.54,7.54,0,0,1,11.51,3.8c-.42.32-.68.11-.91-.26a14.56,14.56,0,0,0-.8-1.24,6.69,6.69,0,0,0-9.7-1.38,9.92,9.92,0,0,0-3.31,4.39,11.3,11.3,0,0,0,.31,9.67,7.26,7.26,0,0,0,4.9,4,1.8,1.8,0,0,0,.32.06c.31,0,.52.18.47.53s-.34.35-.62.29a7.6,7.6,0,0,1-3.89-2c-.43-.41-.83-.86-1.31-1.37l-8.65,12c-.65,0-.58-.47-.59-.88,1-2.14,2.66-3.86,3.93-5.82.48-.73,1-1.45,1.5-2.14a2.74,2.74,0,0,0,.46-2.76,7,7,0,0,1-.39-3.5c-3.87,2.92-7.68,5.76-11.48,8.61-1.28,1-.93,2.48-1.36,3.73a4.2,4.2,0,0,0-.19,1.16,4.53,4.53,0,0,1-.08.75c-.25.66-.45,1.39-1.43,1.09-.53-1.52,0-3,.17-4.51,1-8.55,2-17.09,3-26-3.63,2.19-7.43,2-11.14,1.78a45.36,45.36,0,0,1-24.62-8.81,15.05,15.05,0,0,1-3.72-4.28c-1.8,3.3-3.2,6.6-4.72,9.85Q97.26,128,93.2,136.72c-.29.62-.51,1.35-1.29,1.6a.72.72,0,0,1-.64-.73c.1-1.86,1.18-3.37,1.93-5,3.36-7.17,6.6-14.4,10-21.53a8.4,8.4,0,0,0,.75-2,2.45,2.45,0,0,0-1.79-3.17,35.51,35.51,0,0,0-5.82-1.67,12.6,12.6,0,0,0-14.32,14.48c.2,1.12.83,2.3.09,3.48-.86-.25-.83-1-1-1.7-.09-.4.08-.86-.28-1.2-.72-4.71.33-8.91,3.77-12.31a13.39,13.39,0,0,1,13.67-3.62C100,103.82,101.54,104.39,103.16,104.9Z" transform="translate(-7.54 -9.83)" style="fill:#464055"/><path d="M142.48,151.37a1.89,1.89,0,0,0,1-1.31,19,19,0,0,1,5.13-5.14.88.88,0,0,1,1.48.33c.71,1.55,1.7,3,1.54,4.86,0,.35-.05.75.34,1a6.78,6.78,0,0,0,.06,1.28,9.73,9.73,0,0,1-2,8.16c-.73-1.24-.25-2.64-.46-4a45.32,45.32,0,0,0-1.52-6.64,34.43,34.43,0,0,1,1.7,11,12.67,12.67,0,0,1-2.63,3.37.83.83,0,0,1-.37-.85,27,27,0,0,0-1.26-8.81,32.77,32.77,0,0,1,1.36,9.93,13.05,13.05,0,0,1-3,2.95c-.77-.69-.2-1.56-.26-2.32a40.31,40.31,0,0,0-1.59-8.3,31.65,31.65,0,0,1,1.51,10.89,19.36,19.36,0,0,1-3.94,3l-1.61,1a.8.8,0,0,1-.31-.72c.31-1.27,1.21-2.27,1.49-3.61a16.71,16.71,0,0,0-.43-7C137.81,156.56,139.82,153.84,142.48,151.37Z" transform="translate(-7.54 -9.83)" style="fill:#f36f45"/><path d="M34.22,57.17a3.81,3.81,0,0,1-3.89,3.76,3.82,3.82,0,1,1,3.89-3.76Z" transform="translate(-7.54 -9.83)" style="fill:#ffdb00"/><path d="M80.12,67.14a4.92,4.92,0,0,1-3-1,11,11,0,0,1-5.45-7.91,3,3,0,0,1,.06-.73A7.91,7.91,0,0,1,73.45,59a13.68,13.68,0,0,0,6.65,3.56.87.87,0,0,1,.79.69C80.63,64.53,80.38,65.84,80.12,67.14Z" transform="translate(-7.54 -9.83)" style="fill:#433c52"/><path d="M176.24,130.77a11.19,11.19,0,0,1-1.37,6.31c-1.44,2.45-3.21,4.63-6.24,5.23a7.6,7.6,0,0,1-.8.17.4.4,0,0,1-.49-.31.43.43,0,0,1,.27-.52,1.14,1.14,0,0,1,.32-.07c4.38-1,6.36-4.06,7.29-8.11A10.7,10.7,0,0,0,175,128c-.07-.25-.15-.57.21-.67s.52.14.6.41A7.52,7.52,0,0,1,176.24,130.77Z" transform="translate(-7.54 -9.83)" style="fill:#504b5f"/><path d="M120.14,175.65c-3.08-.68-6.15-1.37-9.17-2.28-1.67-.51-3.25-1.23-4.89-1.83a1.32,1.32,0,0,1-.53-.36.58.58,0,0,1-.07-.45.32.32,0,0,1,.39-.19,2,2,0,0,1,.46.18,63.33,63.33,0,0,0,13.75,4,3.26,3.26,0,0,1,.75.32A.86.86,0,0,1,120.14,175.65Z" transform="translate(-7.54 -9.83)" style="fill:#4a3e53"/><path d="M137.85,170.87c0,.31,0,.62.05.93a10.91,10.91,0,0,1-10.67,2.67c-1.42-.34-2.8-.81-4.21-1.22a1.58,1.58,0,0,1-.24-.85,3,3,0,0,1,2.38.15c4.17,1.55,8.12,1.4,11.77-1.4A1.35,1.35,0,0,1,137.85,170.87Z" transform="translate(-7.54 -9.83)" style="fill:#514b5f"/><path d="M116.53,178.25c-1.3-.32-2.6-.67-3.91-.95a55.93,55.93,0,0,1-9.64-3,2.25,2.25,0,0,1-.45-.19c-.17-.12-.38-.26-.29-.52a.41.41,0,0,1,.53-.23,5,5,0,0,1,.77.26,69,69,0,0,0,12.84,3.6c.41.09.74.15.83.61A.74.74,0,0,1,116.53,178.25Z" transform="translate(-7.54 -9.83)" style="fill:#4b3e53"/><path d="M111.37,181.29c-5.92-1.25-11.37-3.23-13.05-4.75.61-.5,1.13-.08,1.63.15a55.46,55.46,0,0,0,6.07,2.4c1.5.49,3,.77,4.59,1.13A1.94,1.94,0,0,1,112,181,.74.74,0,0,1,111.37,181.29Z" transform="translate(-7.54 -9.83)" style="fill:#4b3e53"/><path d="M143.45,167.78a1.05,1.05,0,0,1-.36-1,32.77,32.77,0,0,0-1.7-10.21l-.06-.16c-.09-.33-.43-.79.14-.93s.54.4.67.75a29.45,29.45,0,0,1,1.25,4.71c.28,1.48.42,3,.59,4.5.08.7-.33,1.37-.19,2.09A.39.39,0,0,1,143.45,167.78Z" transform="translate(-7.54 -9.83)" style="fill:#4a3e53"/><path d="M149.72,160.92a.74.74,0,0,1-.4-.67,35.06,35.06,0,0,0-1.91-10.88.79.79,0,0,1,.16-.79c.64,0,.64.61.79,1A28.1,28.1,0,0,1,150,160.54Z" transform="translate(-7.54 -9.83)" style="fill:#493e53"/><path d="M146.82,164.56c-.46-.26-.47-.7-.46-1.15a28.47,28.47,0,0,0-1.52-9.28c-.16-.51-.27-1-.38-1.58a.34.34,0,0,1,.22-.38.36.36,0,0,1,.43.15,4.16,4.16,0,0,1,.58,1.51,31.09,31.09,0,0,1,1.4,10.45Z" transform="translate(-7.54 -9.83)" style="fill:#4a3e53"/><path d="M88.28,49.44A3.77,3.77,0,0,0,85,51.76a8.82,8.82,0,0,0-1,3.75,7,7,0,0,1-.13,1.29.44.44,0,0,1-.35.28.48.48,0,0,1-.37-.27,1.5,1.5,0,0,1-.11-.63,10.29,10.29,0,0,1,1.5-5.41,5.21,5.21,0,0,1,3.61-2.3C88.62,48.76,88.81,49.08,88.28,49.44Z" transform="translate(-7.54 -9.83)" style="fill:#4c3f53"/><path d="M163.58,135.17a1.3,1.3,0,0,1-1.14-1.37,1.38,1.38,0,0,1,1.42-1.45,1.36,1.36,0,0,1,1.07,1.43A1.45,1.45,0,0,1,163.58,135.17Z" transform="translate(-7.54 -9.83)" style="fill:#5e596b"/><path d="M169,131.82a1.44,1.44,0,0,1-1.24,1.49,1.27,1.27,0,0,1-1.2-1.3,1.41,1.41,0,0,1,1.31-1.57A1.32,1.32,0,0,1,169,131.82Z" transform="translate(-7.54 -9.83)" style="fill:#605b6d"/><path d="M164.34,127.39a1.28,1.28,0,0,1,1.28,1.23,1.44,1.44,0,0,1-1.15,1.54,1.24,1.24,0,0,1-1.36-1.29A1.42,1.42,0,0,1,164.34,127.39Z" transform="translate(-7.54 -9.83)" style="fill:#615c6e"/><path d="M169.47,127.45c-.71.93-1.16,1.08-1.74.6a1.56,1.56,0,0,1,0-2.18c.57-.57,1-.47,1.8.39-.06.07-.1.17-.17.22-.38.2-1-.33-1.21.42C168.05,127.16,168.3,127.26,169.47,127.45Z" transform="translate(-7.54 -9.83)" style="fill:#544e62"/><path d="M172.16,134.43c-.15.2-.31.14-.46.09-.35-.1-.78-.39-.95.15s.26.58.67.59c.19,0,.46.05.43.36s-.21.35-.41.45a1,1,0,0,1-1.29-.32,1.44,1.44,0,0,1-.05-1.81,1.07,1.07,0,0,1,1.26-.52C171.83,133.58,172.23,133.86,172.16,134.43Z" transform="translate(-7.54 -9.83)" style="fill:#524d61"/><path d="M167.48,137.76c-.47-.37.08-1.08-.46-1.44-.85.2-.21,1.11-.74,1.44-.71-1-.73-1.67,0-2.21a1.06,1.06,0,0,1,1.48,0C168.33,136.12,168.24,136.88,167.48,137.76Z" transform="translate(-7.54 -9.83)" style="fill:#544e62"/><path d="M172.82,129.33a3.26,3.26,0,0,1-.52.11c-.35,0-.84-.21-.89.36s.4.48.79.4c.23,0,.45.05.42.33a.62.62,0,0,1-.22.4,1.07,1.07,0,0,1-1.48-.07,1.41,1.41,0,0,1-.24-1.66,1.12,1.12,0,0,1,1.29-.75A1,1,0,0,1,172.82,129.33Z" transform="translate(-7.54 -9.83)" style="fill:#4c475c"/><path d="M63.35,145.57a91,91,0,0,1-6.16-9,82.33,82.33,0,0,1-4.64-8l.1-.1a6.33,6.33,0,0,1,6.15-1.08c6.72,1.92,10,11.29,6,17A2.5,2.5,0,0,1,63.35,145.57Z" transform="translate(-7.54 -9.83)" style="fill:#f36f45"/><path d="M63.35,145.57A13.27,13.27,0,0,0,65.53,142a11.74,11.74,0,0,0-4.1-13,7.35,7.35,0,0,0-7.86-.87,1.51,1.51,0,0,1-.92.25.73.73,0,0,1,.38-.82,6.77,6.77,0,0,1,4.68-1,10.46,10.46,0,0,1,8,6.46,11.78,11.78,0,0,1,.39,9.77,19.08,19.08,0,0,1-1.51,2.5,1.05,1.05,0,0,1-1.13.47A.36.36,0,0,1,63.35,145.57Z" transform="translate(-7.54 -9.83)" style="fill:#f36f45"/><path d="M137.85,170.87a11.12,11.12,0,0,1-8.28,3.13,13.24,13.24,0,0,1-2.87-.55c-1.3-.37-2.61-.7-3.92-1a25.2,25.2,0,0,0-4.35-1.35,81.86,81.86,0,0,1-12.18-4.29,15.08,15.08,0,0,1-3-1.71,5.34,5.34,0,0,1-1-1c-.61-.88-.34-1.57.71-1.81a57.67,57.67,0,0,1,5.86-.64,13.07,13.07,0,0,0,3-.58c.91-.34,1-.77.24-1.39a1.31,1.31,0,0,0-.27-.19c-7.4-4.56-12.9-11-18-17.92-.52-.71-1-1.43-1.53-2.13a1.7,1.7,0,0,1-.41-1q3.32-7,6.62-14.06,3.68-7.85,7.32-15.66c.57-.06.5.39.63.65a13.75,13.75,0,0,0,4.35,4.81A39.58,39.58,0,0,0,122,119.68a45.12,45.12,0,0,0,15.57,2.62c2.93-.07,5.75-.49,8.18-2.21.34.16.24.4.22.58q-.87,7.49-1.76,15l-1.77,14.94a7.3,7.3,0,0,0,0,.81c-.77,1.12-1.57,2.23-2.31,3.37a7,7,0,0,0-1,6,14.27,14.27,0,0,1,.48,6.14A6.94,6.94,0,0,1,137.85,170.87Z" transform="translate(-7.54 -9.83)" style="fill:#fff"/><path d="M82.15,122.22c-.16-1.13-.3-2.27-.5-3.39a13,13,0,0,1,11.16-15,12.51,12.51,0,0,1,5.17.37c1.73.49,3.42,1.11,5.16,1.58a1.5,1.5,0,0,1,1.21,1.34,4.43,4.43,0,0,1-.11,2.85C100,119,95.76,128.09,91.53,137.18a4.65,4.65,0,0,1-.26.41,33.92,33.92,0,0,1-3.55-5.26c-1.51-2.39-2.88-4.87-4.34-7.3A17.1,17.1,0,0,1,82.15,122.22Z" transform="translate(-7.54 -9.83)" style="fill:#2cae5c"/><path d="M77.93,164.49a.77.77,0,0,1,.26-1A1.46,1.46,0,0,1,77.93,164.49Z" transform="translate(-7.54 -9.83)" style="fill:#a0505a"/><path d="M180.09,271.45a2.9,2.9,0,0,1-2.87,2.94,2.89,2.89,0,1,1-.12-5.77A2.91,2.91,0,0,1,180.09,271.45Z" transform="translate(-7.54 -9.83)" style="fill:#fefefe"/><path d="M144.45,288.6a1.37,1.37,0,1,1-2.74.11,1.36,1.36,0,0,1,1.39-1.45A1.38,1.38,0,0,1,144.45,288.6Z" transform="translate(-7.54 -9.83)" style="fill:#fafafa"/><path d="M20.28,266.46a.72.72,0,0,1,.76.17C28,272.12,35.9,275.52,44.3,278c1.21.35,2.43.64,3.64,1s1.15.3,1,1.44a35.33,35.33,0,0,0-.32,7.19c.31,5,2,9.24,6.21,12.27.08.05.1.16.16.26-.17.31-.47.19-.71.19H18.2a4.64,4.64,0,0,1-4.83-4.18,6.17,6.17,0,0,1,.29-2.26c1.43-6,2.89-12,4.34-18Z" transform="translate(-7.54 -9.83)" style="fill:#fff"/><path d="M93.1,300.27H91.22c-10.71,0-21.42,0-32.13,0a6.22,6.22,0,0,1-3.8-1.21c-3.38-2.4-5-5.8-5.66-9.78s-.05-7.62.48-11.4c.32-2.26.81-4.5,1.22-6.78a2.25,2.25,0,0,1,.56.14c5.46,3.19,11.49,4.7,17.59,6,4.06.86,8.18,1.4,12.3,1.88,1.2.14,1.22.19,1.14,1.38a16.78,16.78,0,0,0,2.39,9.87,47.8,47.8,0,0,0,6.22,8.21Z" transform="translate(-7.54 -9.83)" style="fill:#fff"/><path d="M35.88,303.22H15.56c-.44,0-.88,0-1.32,0a1,1,0,0,1-.06-2c.32,0,.65,0,1,0H56.63a6.18,6.18,0,0,1,1.14,0,.91.91,0,0,1,.83,1,.92.92,0,0,1-.92,1c-.44,0-.88,0-1.31,0Z" transform="translate(-7.54 -9.83)" style="fill:#fefefe"/><path d="M59.5,303v-1.7a3,3,0,0,1,1.61-.17h32c.33,0,.66,0,1,0a1,1,0,0,1,1.06,1,1,1,0,0,1-1,1H60.65A1.69,1.69,0,0,1,59.5,303Z" transform="translate(-7.54 -9.83)" style="fill:#fefefe"/><path d="M116.92,102.58a46,46,0,0,1,23.84,7,17.94,17.94,0,0,1,3.53,2.91,9.13,9.13,0,0,1,1.7,2.39,3.55,3.55,0,0,1-1.56,5,12.67,12.67,0,0,1-6.3,1.52,46.62,46.62,0,0,1-25.62-7.24,17.26,17.26,0,0,1-3.53-2.91,8.75,8.75,0,0,1-1.7-2.39,3.38,3.38,0,0,1,1.41-4.77,12.42,12.42,0,0,1,5.61-1.58C115.17,102.51,116.05,102.58,116.92,102.58Z" transform="translate(-7.54 -9.83)" style="fill:#fdfdfd"/><path d="M151.62,150.11a36.12,36.12,0,0,0-2.29-5.41c-.92.83-1.78,1.62-2.66,2.38-1.11.95-1.9,2.23-3.2,3,0-.23,0-.45,0-.68s.06-.59.17-.87c.18-1.18.09-2.52.65-3.49s1.72-1.44,2.64-2.12q4.37-3.28,8.75-6.55c.42-.32.87-.6,1.46-1a14.08,14.08,0,0,0,.83,5.28,1,1,0,0,1-.27,1C155.67,144.46,153.8,147.4,151.62,150.11Z" transform="translate(-7.54 -9.83)" style="fill:#fff"/><path d="M143.66,148.51a.93.93,0,0,1-.17.87A.77.77,0,0,1,143.66,148.51Z" transform="translate(-7.54 -9.83)" style="fill:#a0505a"/><path d="M136.22,120.2a46.48,46.48,0,0,1-22.52-6.49,16.9,16.9,0,0,1-3.25-2.47,10.62,10.62,0,0,1-1.28-1.48c-1.58-2.25-1-4.2,1.53-5.22a16.09,16.09,0,0,1,7.08-.92,48.53,48.53,0,0,1,20.14,5.7,20.9,20.9,0,0,1,4.9,3.51,7.77,7.77,0,0,1,1.5,1.93,2.87,2.87,0,0,1-1.26,4.28,10.53,10.53,0,0,1-4.39,1.15C137.86,120.26,137,120.2,136.22,120.2Z" transform="translate(-7.54 -9.83)" style="fill:#423c52"/><path d="M81.75,51.53a.49.49,0,0,1,.51.44.53.53,0,0,1-.46.55.47.47,0,0,1-.54-.46A.52.52,0,0,1,81.75,51.53Z" transform="translate(-7.54 -9.83)" style="fill:#4c3f53"/><path d="M86.45,52.28a.48.48,0,0,1,.51.44.53.53,0,0,1-.46.55.47.47,0,0,1-.54-.46A.52.52,0,0,1,86.45,52.28Z" transform="translate(-7.54 -9.83)" style="fill:#4c3f53"/><path d="M168,184.15l.24,6.42-.17-6.44Z" transform="translate(-7.54 -9.83)" style="fill:#91f2cd"/><path d="M167.91,180.07l-.16-5.74-.12,0c.05,1.9.11,3.79.18,5.69Z" transform="translate(-7.54 -9.83)" style="fill:#91f2cd"/><path d="M167.64,170.12l-.3-10.92q0,5.46.18,10.91Z" transform="translate(-7.54 -9.83)" style="fill:#91f2cd"/><path d="M168.59,199.74c-.07-1.64-.15-3.28-.22-4.92h-.06l.13,4.93Z" transform="translate(-7.54 -9.83)" style="fill:#91f2cd"/><path d="M168.65,204h-.09l.15,5.59a1.55,1.55,0,0,1,.31,0c-.08-1.87-.16-3.75-.25-5.63Z" transform="translate(-7.54 -9.83)" style="fill:#91f2cd"/><path d="M170,242.22c0-2.87-.09-5.74-.17-8.62a2.74,2.74,0,0,1-.5.08l.23,8.42A1.69,1.69,0,0,1,170,242.22Z" transform="translate(-7.54 -9.83)" style="fill:#91f2cd"/><path d="M169.93,247.72l-.18,0,.29,10.72c.06-3.6.07-7.21.05-10.82A1.11,1.11,0,0,1,169.93,247.72Z" transform="translate(-7.54 -9.83)" style="fill:#91f2cd"/><path d="M169.35,225.85a1.51,1.51,0,0,1,.3,0q-.21-6-.46-12a2.08,2.08,0,0,1-.36.05l.32,12Z" transform="translate(-7.54 -9.83)" style="fill:#91f2cd"/><path d="M167,148.12l.2,7.33" transform="translate(-7.54 -9.83)" style="fill:#91f2cd"/><path d="M173.72,187.1l-.24-11.39-.14,0c0,3.81.09,7.62.13,11.43Z" transform="translate(-7.54 -9.83)" style="fill:#91f2cd"/><path d="M174,200.46l-.2-9.18c-.1,0-.19-.06-.29-.09q.06,4.67.13,9.35A1.9,1.9,0,0,1,174,200.46Z" transform="translate(-7.54 -9.83)" style="fill:#91f2cd"/><path d="M174.24,211.12l-.14-6.4a2.28,2.28,0,0,1-.39-.06c0,2.13.08,4.26.12,6.39A2.7,2.7,0,0,1,174.24,211.12Z" transform="translate(-7.54 -9.83)" style="fill:#91f2cd"/><path d="M174.29,223.73l.22,0-.19-8.55a1.84,1.84,0,0,1-.42.1q.09,4.22.19,8.45Z" transform="translate(-7.54 -9.83)" style="fill:#91f2cd"/><path d="M174.78,236.46,174.6,228a1.55,1.55,0,0,1-.31,0h-.09c.08,2.82.18,5.64.27,8.47Z" transform="translate(-7.54 -9.83)" style="fill:#91f2cd"/><path d="M175,249.11c.07,1.64.12,3.28.2,4.93l-.1-5Z" transform="translate(-7.54 -9.83)" style="fill:#91f2cd"/><path d="M175,245l-.09-4.28a2.48,2.48,0,0,1-.27,0c.05,1.42.12,2.84.18,4.25Z" transform="translate(-7.54 -9.83)" style="fill:#91f2cd"/><path d="M173.39,171.55l-.29-13.63q.1,6.79.19,13.61Z" transform="translate(-7.54 -9.83)" style="fill:#91f2cd"/><path d="M172.82,144.65l.21,10.1" transform="translate(-7.54 -9.83)" style="fill:#91f2cd"/><path d="M178.48,162.45l-.24-10.82c0,3.63.09,7.24.14,10.86Z" transform="translate(-7.54 -9.83)" style="fill:#91f2cd"/><path d="M179.42,204.73l-.14-6.35h0l-.13,0c0,2.14.11,4.27.16,6.41Z" transform="translate(-7.54 -9.83)" style="fill:#91f2cd"/><path d="M179.69,216.89l-.18-8-.14,0,.21,8Z" transform="translate(-7.54 -9.83)" style="fill:#91f2cd"/><path d="M179.92,227.26l-.15-6.46-.09-.05c0,2.17.11,4.35.16,6.52Z" transform="translate(-7.54 -9.83)" style="fill:#91f2cd"/><path d="M180.19,239.31l-.18-7.75h0c.06,2.58.13,5.17.19,7.75Z" transform="translate(-7.54 -9.83)" style="fill:#91f2cd"/><path d="M180.26,243.53c.05,1.86.1,3.73.14,5.6l-.12-5.6Z" transform="translate(-7.54 -9.83)" style="fill:#91f2cd"/><path d="M179.18,194.09l-.28-12.68-.17,0c.08,4.25.18,8.48.28,12.72Z" transform="translate(-7.54 -9.83)" style="fill:#91f2cd"/><path d="M178.81,177.18l-.24-10.66-.13,0c.06,3.59.14,7.16.21,10.74Z" transform="translate(-7.54 -9.83)" style="fill:#91f2cd"/><path d="M178,139.75l.18,7.81" transform="translate(-7.54 -9.83)" style="fill:#91f2cd"/></svg>