<svg id="Layer_1" data-name="Layer 1" xmlns="http://www.w3.org/2000/svg" viewBox="0 0 276 276"><path d="M283.72,488.18c-1.64-.65-2.16-1.88-2.16-3.61,0-17.82,0-35.63.05-53.44,0-1.15-.21-1.55-1.47-1.53-5.12.09-10.24,0-15.36,0-2.53,0-3.47-.94-3.47-3.5q0-10.31,0-20.61c0-2.51,1-3.48,3.51-3.48,5.2,0,10.41,0,15.62,0,.9,0,1.17-.2,1.17-1.14,0-5.6-.17-11.21.08-16.8.35-7.66,2.67-14.67,7.86-20.51a29.07,29.07,0,0,1,16.29-9.1,40.29,40.29,0,0,1,8.48-.81h16c2.69,0,3.64.94,3.64,3.62q0,9.39,0,18.78c0,2.72-.9,3.58-3.62,3.62-4.46.06-8.93-.22-13.38.18-2.41.23-4.66.88-6,3.22a8.49,8.49,0,0,0-1,4c-.07,4.69,0,9.37-.09,14,0,.89.43.85,1,.84h18.51c2.77,0,3.67.91,3.67,3.71v20.35c0,2.64-.91,3.52-3.57,3.53-6.13,0-12.26,0-18.38,0-1.07,0-1.27.32-1.27,1.31q0,26.71,0,53.44c0,1.72-.43,3.07-2.08,3.82Z" transform="translate(-159.64 -282.94)" style="fill:#2cae5c"/><circle cx="138" cy="138" r="137" style="fill:none;stroke:#2cae5c;stroke-width:4px"/></svg>